<?xml version="1.0" encoding="UTF-8"?>
<!DOCTYPE svg PUBLIC "-//W3C//DTD SVG 1.1//EN" "http://www.w3.org/Graphics/SVG/1.1/DTD/svg11.dtd">
<svg version="1.1" xmlns="http://www.w3.org/2000/svg" xmlns:xlink="http://www.w3.org/1999/xlink" x="0" y="0" width="2012.599" height="1615.748" viewBox="0, 0, 2012.599, 1615.748">
  <g id="Layer_1">
    <path d="M677.5,39.314 L885.5,39.314 L885.5,163.686 L677.5,163.686 L677.5,39.314 z" fill-opacity="0" stroke="#000000" stroke-width="3"/>
    <path d="M885.5,39.314 L1093.5,39.314 L1093.5,163.686 L885.5,163.686 L885.5,39.314 z" fill-opacity="0" stroke="#000000" stroke-width="3"/>
    <path d="M1093.5,39.314 L1301.5,39.314 L1301.5,163.686 L1093.5,163.686 L1093.5,39.314 z" fill-opacity="0" stroke="#000000" stroke-width="3"/>
    <path d="M677.5,163.686 L885.5,163.686 L885.5,288.057 L677.5,288.057 L677.5,163.686 z" fill-opacity="0" stroke="#000000" stroke-width="3"/>
    <path d="M885.5,163.686 L1093.5,163.686 L1093.5,288.057 L885.5,288.057 L885.5,163.686 z" fill-opacity="0" stroke="#000000" stroke-width="3"/>
    <path d="M1093.5,163.686 L1301.5,163.686 L1301.5,288.057 L1093.5,288.057 L1093.5,163.686 z" fill-opacity="0" stroke="#000000" stroke-width="3"/>
    <g>
      <path d="M677.5,431.314 L885.5,431.314 L885.5,555.686 L677.5,555.686 L677.5,431.314 z" fill-opacity="0" stroke="#000000" stroke-width="3"/>
      <path d="M885.5,431.314 L1093.5,431.314 L1093.5,555.686 L885.5,555.686 L885.5,431.314 z" fill-opacity="0" stroke="#000000" stroke-width="3"/>
      <path d="M1093.5,431.314 L1301.5,431.314 L1301.5,555.686 L1093.5,555.686 L1093.5,431.314 z" fill-opacity="0" stroke="#000000" stroke-width="3"/>
      <path d="M1301.5,431.314 L1509.5,431.314 L1509.5,555.686 L1301.5,555.686 L1301.5,431.314 z" fill-opacity="0" stroke="#000000" stroke-width="3"/>
      <path d="M677.5,555.686 L885.5,555.686 L885.5,680.057 L677.5,680.057 L677.5,555.686 z" fill-opacity="0" stroke="#000000" stroke-width="3"/>
      <path d="M885.5,555.686 L1093.5,555.686 L1093.5,680.057 L885.5,680.057 L885.5,555.686 z" fill-opacity="0" stroke="#000000" stroke-width="3"/>
      <path d="M1093.5,555.686 L1301.5,555.686 L1301.5,680.057 L1093.5,680.057 L1093.5,555.686 z" fill-opacity="0" stroke="#000000" stroke-width="3"/>
      <path d="M1301.5,555.686 L1509.5,555.686 L1509.5,680.057 L1301.5,680.057 L1301.5,555.686 z" fill-opacity="0" stroke="#000000" stroke-width="3"/>
      <path d="M677.5,680.057 L885.5,680.057 L885.5,804.428 L677.5,804.428 L677.5,680.057 z" fill-opacity="0" stroke="#000000" stroke-width="3"/>
      <path d="M885.5,680.057 L1093.5,680.057 L1093.5,804.428 L885.5,804.428 L885.5,680.057 z" fill-opacity="0" stroke="#000000" stroke-width="3"/>
      <path d="M1093.5,680.057 L1301.5,680.057 L1301.5,804.428 L1093.5,804.428 L1093.5,680.057 z" fill-opacity="0" stroke="#000000" stroke-width="3"/>
      <path d="M1301.5,680.057 L1509.5,680.057 L1509.5,804.428 L1301.5,804.428 L1301.5,680.057 z" fill-opacity="0" stroke="#000000" stroke-width="3"/>
    </g>
    <g>
      <path d="M661.378,633.935 L420.5,393.057" fill-opacity="0" stroke="#000000" stroke-width="7"/>
      <path d="M656.711,638.602 L673.823,646.38 L666.045,629.268 z" fill="#000000" fill-opacity="1" stroke="#000000" stroke-width="7" stroke-opacity="1"/>
    </g>
    <g>
      <path d="M137.106,329.192 Q144.079,329.192 150.539,332.679 L150.539,340.882 Q143.122,336.404 137.38,336.404 Q133.894,336.404 131.928,337.754 Q129.963,339.105 129.963,341.36 Q129.963,344.061 133.62,346.351 Q134.646,347.034 141.516,350.179 Q147.395,352.947 149.992,356.331 Q152.59,359.715 152.59,364.466 Q152.59,370.618 148.164,374.395 Q143.737,378.172 136.696,378.172 Q132.116,378.172 128.818,377.164 Q125.52,376.155 121.418,373.694 L121.418,364.603 Q129.074,370.96 135.842,370.96 Q139.226,370.96 141.311,369.49 Q143.396,368.021 143.396,365.594 Q143.396,362.278 139.772,360.193 Q136.765,358.553 132.014,356.263 Q126.374,353.699 123.588,350.281 Q120.803,346.863 120.803,342.352 Q120.803,336.336 125.28,332.764 Q129.758,329.192 137.106,329.192 z M176.037,345.018 Q182.873,345.018 187.06,349.598 Q191.247,354.178 191.247,361.526 Q191.247,366.346 189.282,370.14 Q187.316,373.934 183.693,376.053 Q180.07,378.172 175.49,378.172 Q171.765,378.172 168.005,376.292 L168.005,393.655 L159.597,393.655 L159.597,345.633 L167.937,345.633 L167.937,347.684 Q171.73,345.018 176.037,345.018 z M168.005,370.14 Q171.149,371.951 173.884,371.951 Q177.849,371.951 180.241,369.114 Q182.634,366.277 182.634,361.8 Q182.634,356.912 180.498,354.144 Q178.361,351.375 174.431,351.375 Q172.961,351.375 171.594,351.871 Q170.227,352.366 168.005,353.973 z M209.431,345.018 Q215.583,345.018 218.83,347.632 Q222.077,350.247 222.077,354.93 L222.077,370.55 Q222.077,372.361 223.547,372.361 Q224.162,372.361 225.273,371.832 Q226.384,371.302 227.136,370.618 L227.136,375.472 Q222.727,378.172 219.069,378.172 Q216.813,378.172 215.6,377.42 Q214.387,376.668 213.908,374.754 Q209.089,378.172 204.235,378.172 Q200.783,378.172 198.305,375.848 Q195.827,373.523 195.827,370.276 Q195.827,366.141 198.288,363.748 Q200.749,361.355 206.901,359.578 L213.703,357.596 L213.703,356.126 Q213.703,351.443 208.029,351.443 Q205.124,351.443 202.253,352.776 Q199.382,354.109 197.023,356.707 L197.023,349.153 Q202.253,345.018 209.431,345.018 z M204.304,369.012 Q204.304,370.755 205.415,371.814 Q206.525,372.874 208.166,372.874 Q210.935,372.874 213.703,370.345 L213.703,361.937 Q210.183,363.133 208.183,364.192 Q206.184,365.252 205.244,366.346 Q204.304,367.439 204.304,369.012 z M247.062,345.018 Q252.634,345.018 257.146,347.171 L257.146,354.314 Q252.668,351.717 248.669,351.717 Q244.362,351.717 241.628,354.4 Q238.894,357.083 238.894,361.663 Q238.894,366.141 241.645,368.875 Q244.396,371.609 248.977,371.609 Q252.395,371.609 257.727,369.354 L257.727,376.155 Q252.771,378.172 247.507,378.172 Q239.748,378.172 234.912,373.729 Q230.075,369.285 230.075,361.937 Q230.075,354.314 234.809,349.666 Q239.543,345.018 247.062,345.018 z M278.303,345.018 Q285.344,345.018 289.445,349.529 Q293.547,354.041 293.547,362.005 L293.547,363.27 L270.954,363.27 Q271.467,367.542 274.15,369.849 Q276.833,372.156 281.516,372.156 Q284.523,372.156 287.309,371.114 Q290.095,370.071 293.068,367.952 L293.068,374.207 Q287.463,378.172 279.465,378.172 Q271.911,378.172 267.126,373.626 Q262.341,369.08 262.341,361.526 Q262.341,354.246 266.767,349.632 Q271.193,345.018 278.303,345.018 z M285.651,358.177 Q285.31,354.69 283.532,352.725 Q281.755,350.76 278.645,350.76 Q275.466,350.76 273.535,352.64 Q271.604,354.52 271.091,358.177 z M310.5,345.018 Q313.132,345.018 315.456,345.616 Q317.78,346.214 320.378,347.513 L320.378,354.246 Q317.985,352.708 315.251,351.768 Q312.517,350.828 310.363,350.828 Q308.552,350.828 307.526,351.512 Q306.501,352.195 306.501,353.46 Q306.501,354.178 307.355,354.896 Q308.21,355.613 312.038,357.527 Q317.507,360.296 319.711,362.637 Q321.916,364.979 321.916,368.26 Q321.916,372.874 318.703,375.523 Q315.49,378.172 310.021,378.172 Q306.604,378.172 303.647,377.42 Q300.69,376.668 298.742,375.608 L298.742,368.602 Q304.895,372.02 309.099,372.02 Q311.252,372.02 312.585,371.251 Q313.918,370.481 313.918,369.217 Q313.918,368.465 313.439,367.85 Q312.961,367.234 312.004,366.585 Q311.047,365.936 306.022,363.475 Q302.16,361.629 300.314,359.459 Q298.469,357.288 298.469,354.314 Q298.469,350.076 301.784,347.547 Q305.1,345.018 310.5,345.018 z" fill="#1B9E77"/>
      <path d="M137.106,329.192 Q144.079,329.192 150.539,332.679 L150.539,340.882 Q143.122,336.404 137.38,336.404 Q133.894,336.404 131.928,337.754 Q129.963,339.105 129.963,341.36 Q129.963,344.061 133.62,346.351 Q134.646,347.034 141.516,350.179 Q147.395,352.947 149.992,356.331 Q152.59,359.715 152.59,364.466 Q152.59,370.618 148.164,374.395 Q143.737,378.172 136.696,378.172 Q132.116,378.172 128.818,377.164 Q125.52,376.155 121.418,373.694 L121.418,364.603 Q129.074,370.96 135.842,370.96 Q139.226,370.96 141.311,369.49 Q143.396,368.021 143.396,365.594 Q143.396,362.278 139.772,360.193 Q136.765,358.553 132.014,356.263 Q126.374,353.699 123.588,350.281 Q120.803,346.863 120.803,342.352 Q120.803,336.336 125.28,332.764 Q129.758,329.192 137.106,329.192 z M176.037,345.018 Q182.873,345.018 187.06,349.598 Q191.247,354.178 191.247,361.526 Q191.247,366.346 189.282,370.14 Q187.316,373.934 183.693,376.053 Q180.07,378.172 175.49,378.172 Q171.765,378.172 168.005,376.292 L168.005,393.655 L159.597,393.655 L159.597,345.633 L167.937,345.633 L167.937,347.684 Q171.73,345.018 176.037,345.018 z M168.005,370.14 Q171.149,371.951 173.884,371.951 Q177.849,371.951 180.241,369.114 Q182.634,366.277 182.634,361.8 Q182.634,356.912 180.498,354.144 Q178.361,351.375 174.431,351.375 Q172.961,351.375 171.594,351.871 Q170.227,352.366 168.005,353.973 z M209.431,345.018 Q215.583,345.018 218.83,347.632 Q222.077,350.247 222.077,354.93 L222.077,370.55 Q222.077,372.361 223.547,372.361 Q224.162,372.361 225.273,371.832 Q226.384,371.302 227.136,370.618 L227.136,375.472 Q222.727,378.172 219.069,378.172 Q216.813,378.172 215.6,377.42 Q214.387,376.668 213.908,374.754 Q209.089,378.172 204.235,378.172 Q200.783,378.172 198.305,375.848 Q195.827,373.523 195.827,370.276 Q195.827,366.141 198.288,363.748 Q200.749,361.355 206.901,359.578 L213.703,357.596 L213.703,356.126 Q213.703,351.443 208.029,351.443 Q205.124,351.443 202.253,352.776 Q199.382,354.109 197.023,356.707 L197.023,349.153 Q202.253,345.018 209.431,345.018 z M204.304,369.012 Q204.304,370.755 205.415,371.814 Q206.525,372.874 208.166,372.874 Q210.935,372.874 213.703,370.345 L213.703,361.937 Q210.183,363.133 208.183,364.192 Q206.184,365.252 205.244,366.346 Q204.304,367.439 204.304,369.012 z M247.062,345.018 Q252.634,345.018 257.146,347.171 L257.146,354.314 Q252.668,351.717 248.669,351.717 Q244.362,351.717 241.628,354.4 Q238.894,357.083 238.894,361.663 Q238.894,366.141 241.645,368.875 Q244.396,371.609 248.977,371.609 Q252.395,371.609 257.727,369.354 L257.727,376.155 Q252.771,378.172 247.507,378.172 Q239.748,378.172 234.912,373.729 Q230.075,369.285 230.075,361.937 Q230.075,354.314 234.809,349.666 Q239.543,345.018 247.062,345.018 z M278.303,345.018 Q285.344,345.018 289.445,349.529 Q293.547,354.041 293.547,362.005 L293.547,363.27 L270.954,363.27 Q271.467,367.542 274.15,369.849 Q276.833,372.156 281.516,372.156 Q284.523,372.156 287.309,371.114 Q290.095,370.071 293.068,367.952 L293.068,374.207 Q287.463,378.172 279.465,378.172 Q271.911,378.172 267.126,373.626 Q262.341,369.08 262.341,361.526 Q262.341,354.246 266.767,349.632 Q271.193,345.018 278.303,345.018 z M285.651,358.177 Q285.31,354.69 283.532,352.725 Q281.755,350.76 278.645,350.76 Q275.466,350.76 273.535,352.64 Q271.604,354.52 271.091,358.177 z M310.5,345.018 Q313.132,345.018 315.456,345.616 Q317.78,346.214 320.378,347.513 L320.378,354.246 Q317.985,352.708 315.251,351.768 Q312.517,350.828 310.363,350.828 Q308.552,350.828 307.526,351.512 Q306.501,352.195 306.501,353.46 Q306.501,354.178 307.355,354.896 Q308.21,355.613 312.038,357.527 Q317.507,360.296 319.711,362.637 Q321.916,364.979 321.916,368.26 Q321.916,372.874 318.703,375.523 Q315.49,378.172 310.021,378.172 Q306.604,378.172 303.647,377.42 Q300.69,376.668 298.742,375.608 L298.742,368.602 Q304.895,372.02 309.099,372.02 Q311.252,372.02 312.585,371.251 Q313.918,370.481 313.918,369.217 Q313.918,368.465 313.439,367.85 Q312.961,367.234 312.004,366.585 Q311.047,365.936 306.022,363.475 Q302.16,361.629 300.314,359.459 Q298.469,357.288 298.469,354.314 Q298.469,350.076 301.784,347.547 Q305.1,345.018 310.5,345.018 z" fill-opacity="0" stroke="#1B9E77" stroke-width="1"/>
    </g>
    <path d="M677.5,39.314 L1301.5,39.314 L1301.5,288.057 L677.5,288.057 L677.5,39.314 z" fill-opacity="0" stroke="#1B9E77" stroke-width="5"/>
    <path d="M677.5,431.314 L1509.5,431.314 L1509.5,804.428 L677.5,804.428 L677.5,431.314 z" fill-opacity="0" stroke="#1B9E77" stroke-width="5"/>
    <g>
      <path d="M789.029,759.857 L717.5,1117.5" fill-opacity="0" stroke="#000000" stroke-width="7"/>
      <path d="M795.5,761.152 L792.48,742.599 L782.557,758.563 z" fill="#000000" fill-opacity="1" stroke="#000000" stroke-width="7" stroke-opacity="1"/>
    </g>
    <text transform="matrix(1, 0, 0, 1, 831.402, 1293.5)">
      <tspan x="-349.402" y="-97" font-family="GillSans" font-size="70" fill="#000000">Each </tspan>
      <tspan x="-199.421" y="-97" font-family="GillSans-SemiBold" font-size="70" fill="#000000">OVE client</tspan>
      <tspan x="-349.402" y="-15" font-family="GillSans" font-size="70" fill="#000000">typically runs in a full-</tspan>
      <tspan x="-349.402" y="65" font-family="GillSans" font-size="70" fill="#000000">screen browser window </tspan>
      <tspan x="-349.402" y="145" font-family="GillSans" font-size="70" fill="#000000">on one monitor.</tspan>
    </text>
    <text transform="matrix(1, 0, 0, 1, 208.747, 428.557)">
      <tspan x="-127.747" y="23.5" font-family="GillSans-SemiBold" font-size="70" fill="#000000">(named)</tspan>
    </text>
    <path d="M994,490 L1230,490 L1230,754 L994,754 L994,490 z" fill="#D95F02"/>
    <g>
      <path d="M1144.464,715.255 L1422.5,1117.5" fill-opacity="0" stroke="#000000" stroke-width="7"/>
      <path d="M1149.893,711.503 L1134.457,700.778 L1139.035,719.008 z" fill="#000000" fill-opacity="1" stroke="#000000" stroke-width="7" stroke-opacity="1"/>
    </g>
    <text transform="matrix(1, 0, 0, 1, 1633.402, 1337.5)">
      <tspan x="-403.402" y="-141" font-family="GillSans" font-size="70" fill="#000000">An </tspan>
      <tspan x="-302.264" y="-141" font-family="GillSans-SemiBold" font-size="70" fill="#000000">OVE</tspan>
      <tspan x="-157.513" y="-141" font-family="GillSans" font-size="70" fill="#000000"> </tspan>
      <tspan x="-138.065" y="-141" font-family="GillSans-SemiBold" font-size="70" fill="#000000">section</tspan>
      <tspan x="79.796" y="-141" font-family="GillSans" font-size="70" fill="#000000">&#160; is a </tspan>
      <tspan x="-403.402" y="-59" font-family="GillSans" font-size="70" fill="#000000">rectangular region that can </tspan>
      <tspan x="-403.402" y="21" font-family="GillSans" font-size="70" fill="#000000">span multiple clients, and </tspan>
      <tspan x="-403.402" y="103" font-family="GillSans" font-size="70" fill="#000000">runs a single </tspan>
      <tspan x="-34.5" y="103" font-family="GillSans-SemiBold" font-size="70" fill="#000000">OVE</tspan>
      <tspan x="110.25" y="103" font-family="GillSans" font-size="70" fill="#000000"> </tspan>
      <tspan x="129.699" y="103" font-family="GillSans-SemiBold" font-size="70" fill="#000000">app. </tspan>
      <tspan x="-403.402" y="187" font-family="GillSans-SemiBold" font-size="70" fill="#000000">Sections</tspan>
      <tspan x="-148.148" y="187" font-family="GillSans" font-size="70" fill="#000000">&#160;may overlap.</tspan>
    </text>
    <g>
      <path d="M420.5,393.057 L661.378,152.179" fill-opacity="0" stroke="#000000" stroke-width="7"/>
      <path d="M666.045,156.846 L673.823,139.734 L656.711,147.512 z" fill="#000000" fill-opacity="1" stroke="#000000" stroke-width="7" stroke-opacity="1"/>
    </g>
  </g>
</svg>
