<?xml version="1.0" encoding="UTF-8" standalone="no"?>
<svg
   xmlns:dc="http://purl.org/dc/elements/1.1/"
   xmlns:cc="http://creativecommons.org/ns#"
   xmlns:rdf="http://www.w3.org/1999/02/22-rdf-syntax-ns#"
   xmlns:svg="http://www.w3.org/2000/svg"
   xmlns="http://www.w3.org/2000/svg"
   xmlns:sodipodi="http://sodipodi.sourceforge.net/DTD/sodipodi-0.dtd"
   xmlns:inkscape="http://www.inkscape.org/namespaces/inkscape"
   version="1.1"
   x="0"
   y="0"
   width="2012.599"
   height="1415.748"
   viewBox="0, 0, 2012.599, 1415.748"
   id="svg3985"
   sodipodi:docname="concepts.svg"
   inkscape:version="0.92.3 (2405546, 2018-03-11)">
  <metadata
     id="metadata3991">
    <rdf:RDF>
      <cc:Work
         rdf:about="">
        <dc:format>image/svg+xml</dc:format>
        <dc:type
           rdf:resource="http://purl.org/dc/dcmitype/StillImage" />
      </cc:Work>
    </rdf:RDF>
  </metadata>
  <defs
     id="defs3989" />
  <sodipodi:namedview
     pagecolor="#ffffff"
     bordercolor="#666666"
     borderopacity="1"
     objecttolerance="10"
     gridtolerance="10"
     guidetolerance="10"
     inkscape:pageopacity="0"
     inkscape:pageshadow="2"
     inkscape:window-width="1881"
     inkscape:window-height="2105"
     id="namedview3987"
     showgrid="false"
     inkscape:snap-text-baseline="false"
     inkscape:zoom="0.84200841"
     inkscape:cx="786.58673"
     inkscape:cy="807.87402"
     inkscape:window-x="3039"
     inkscape:window-y="27"
     inkscape:window-maximized="0"
     inkscape:current-layer="Layer_1" />
  <g
     id="Layer_1"
     transform="translate(-33.253825,-5.938183)">
    <path
       d="m 677.5,39.314 h 208 v 124.372 h -208 z"
       id="path3872"
       inkscape:connector-curvature="0"
       style="fill-opacity:0;stroke:#000000;stroke-width:3" />
    <path
       d="m 885.5,39.314 h 208 v 124.372 h -208 z"
       id="path3874"
       inkscape:connector-curvature="0"
       style="fill-opacity:0;stroke:#000000;stroke-width:3" />
    <path
       d="m 1093.5,39.314 h 208 v 124.372 h -208 z"
       id="path3876"
       inkscape:connector-curvature="0"
       style="fill-opacity:0;stroke:#000000;stroke-width:3" />
    <path
       d="m 677.5,163.686 h 208 v 124.371 h -208 z"
       id="path3878"
       inkscape:connector-curvature="0"
       style="fill-opacity:0;stroke:#000000;stroke-width:3" />
    <path
       d="m 885.5,163.686 h 208 v 124.371 h -208 z"
       id="path3880"
       inkscape:connector-curvature="0"
       style="fill-opacity:0;stroke:#000000;stroke-width:3" />
    <path
       d="m 1093.5,163.686 h 208 v 124.371 h -208 z"
       id="path3882"
       inkscape:connector-curvature="0"
       style="fill-opacity:0;stroke:#000000;stroke-width:3" />
    <g
       id="g3908">
      <path
         d="m 677.5,431.314 h 208 v 124.372 h -208 z"
         id="path3884"
         inkscape:connector-curvature="0"
         style="fill-opacity:0;stroke:#000000;stroke-width:3" />
      <path
         d="m 885.5,431.314 h 208 v 124.372 h -208 z"
         id="path3886"
         inkscape:connector-curvature="0"
         style="fill-opacity:0;stroke:#000000;stroke-width:3" />
      <path
         d="m 1093.5,431.314 h 208 v 124.372 h -208 z"
         id="path3888"
         inkscape:connector-curvature="0"
         style="fill-opacity:0;stroke:#000000;stroke-width:3" />
      <path
         d="m 1301.5,431.314 h 208 v 124.372 h -208 z"
         id="path3890"
         inkscape:connector-curvature="0"
         style="fill-opacity:0;stroke:#000000;stroke-width:3" />
      <path
         d="m 677.5,555.686 h 208 v 124.371 h -208 z"
         id="path3892"
         inkscape:connector-curvature="0"
         style="fill-opacity:0;stroke:#000000;stroke-width:3" />
      <path
         d="m 885.5,555.686 h 208 v 124.371 h -208 z"
         id="path3894"
         inkscape:connector-curvature="0"
         style="fill-opacity:0;stroke:#000000;stroke-width:3" />
      <path
         d="m 1093.5,555.686 h 208 v 124.371 h -208 z"
         id="path3896"
         inkscape:connector-curvature="0"
         style="fill-opacity:0;stroke:#000000;stroke-width:3" />
      <path
         d="m 1301.5,555.686 h 208 v 124.371 h -208 z"
         id="path3898"
         inkscape:connector-curvature="0"
         style="fill-opacity:0;stroke:#000000;stroke-width:3" />
      <path
         d="m 677.5,680.057 h 208 v 124.371 h -208 z"
         id="path3900"
         inkscape:connector-curvature="0"
         style="fill-opacity:0;stroke:#000000;stroke-width:3" />
      <path
         d="m 885.5,680.057 h 208 v 124.371 h -208 z"
         id="path3902"
         inkscape:connector-curvature="0"
         style="fill-opacity:0;stroke:#000000;stroke-width:3" />
      <path
         d="m 1093.5,680.057 h 208 v 124.371 h -208 z"
         id="path3904"
         inkscape:connector-curvature="0"
         style="fill-opacity:0;stroke:#000000;stroke-width:3" />
      <path
         d="m 1301.5,680.057 h 208 v 124.371 h -208 z"
         id="path3906"
         inkscape:connector-curvature="0"
         style="fill-opacity:0;stroke:#000000;stroke-width:3" />
    </g>
    <g
       id="g3914">
      <path
         d="M 661.378,633.935 420.5,393.057"
         id="path3910"
         inkscape:connector-curvature="0"
         style="fill-opacity:0;stroke:#000000;stroke-width:7" />
      <path
         d="m 656.711,638.602 17.112,7.778 -7.778,-17.112 z"
         id="path3912"
         inkscape:connector-curvature="0"
         style="fill:#000000;fill-opacity:1;stroke:#000000;stroke-width:7;stroke-opacity:1" />
    </g>
    <g
       id="g3920"
       transform="translate(14)">
      <path
         d="m 143.179,378.263 q 0.479,3.452 1.88,5.161 2.564,3.11 8.784,3.11 3.726,0 6.05,-0.82 4.409,-1.572 4.409,-5.845 0,-2.495 -2.187,-3.862 -2.188,-1.333 -6.87,-2.359 l -5.332,-1.196 q -7.862,-1.777 -10.869,-3.862 -5.093,-3.487 -5.093,-10.904 0,-6.767 4.922,-11.245 4.922,-4.477 14.458,-4.477 7.964,0 13.586,4.221 5.623,4.221 5.896,12.253 h -10.117 q -0.274,-4.545 -3.965,-6.46 -2.461,-1.264 -6.118,-1.264 -4.067,0 -6.494,1.64 -2.427,1.641 -2.427,4.581 0,2.7 2.393,4.033 1.538,0.888 6.562,2.085 l 8.682,2.085 q 5.708,1.367 8.613,3.657 4.512,3.555 4.512,10.288 0,6.904 -5.281,11.467 -5.281,4.563 -14.919,4.563 -9.844,0 -15.484,-4.494 -5.64,-4.495 -5.64,-12.356 z m 63.951,-3.077 q 0,-4.306 -1.966,-7.622 -1.965,-3.315 -6.374,-3.315 -5.298,0 -7.281,5.024 -1.025,2.666 -1.025,6.768 0,6.494 3.452,9.126 2.051,1.538 4.854,1.538 4.067,0 6.203,-3.145 2.137,-3.144 2.137,-8.374 z m -5.538,-19.448 q 6.529,0 11.058,4.82 4.528,4.819 4.528,14.15 0,9.844 -4.426,15.005 -4.426,5.161 -11.399,5.161 -4.443,0 -7.383,-2.222 -1.606,-1.23 -3.144,-3.589 v 19.414 h -9.639 v -51.918 h 9.331 v 5.502 q 1.572,-2.426 3.35,-3.828 3.247,-2.495 7.724,-2.495 z m 43.169,19.961 q -0.922,0.581 -1.862,0.94 -0.94,0.359 -2.581,0.667 l -2.188,0.41 q -3.076,0.547 -4.409,1.333 -2.256,1.333 -2.256,4.136 0,2.495 1.385,3.605 1.384,1.111 3.366,1.111 3.145,0 5.794,-1.845 2.649,-1.846 2.751,-6.734 z m -5.913,-4.546 q 2.7,-0.342 3.863,-0.854 2.085,-0.889 2.085,-2.769 0,-2.29 -1.59,-3.161 -1.589,-0.872 -4.665,-0.872 -3.452,0 -4.888,1.709 -1.025,1.265 -1.367,3.418 h -9.4 q 0.308,-4.888 2.735,-8.032 3.862,-4.922 13.261,-4.922 6.119,0 10.87,2.427 4.751,2.426 4.751,9.16 v 17.09 q 0,1.777 0.068,4.306 0.102,1.914 0.581,2.598 0.478,0.684 1.436,1.128 v 1.435 h -10.596 q -0.445,-1.128 -0.615,-2.119 -0.171,-0.991 -0.274,-2.256 -2.016,2.188 -4.648,3.726 -3.145,1.812 -7.11,1.812 -5.058,0 -8.357,-2.889 -3.298,-2.888 -3.298,-8.186 0,-6.87 5.298,-9.946 2.905,-1.675 8.545,-2.393 z m 46.553,-1.23 q -0.273,-2.085 -1.401,-3.76 -1.641,-2.256 -5.093,-2.256 -4.922,0 -6.734,4.888 -0.957,2.598 -0.957,6.904 0,4.102 0.957,6.597 1.744,4.648 6.563,4.648 3.418,0 4.853,-1.845 1.436,-1.846 1.744,-4.786 h 9.946 q -0.342,4.444 -3.213,8.409 -4.58,6.391 -13.569,6.391 -8.99,0 -13.228,-5.332 -4.238,-5.332 -4.238,-13.843 0,-9.604 4.683,-14.936 4.682,-5.332 12.919,-5.332 7.007,0 11.468,3.144 4.46,3.145 5.28,11.109 z m 31.377,-6.323 q -3.384,0 -5.247,2.119 -1.862,2.119 -2.341,5.742 h 15.142 q -0.24,-3.862 -2.342,-5.862 -2.102,-1.999 -5.212,-1.999 z m 0,-8.033 q 4.648,0 8.374,1.743 3.726,1.744 6.152,5.503 2.188,3.316 2.837,7.691 0.376,2.563 0.308,7.383 h -25.498 q 0.205,5.605 3.52,7.861 2.017,1.401 4.854,1.401 3.008,0 4.888,-1.709 1.025,-0.922 1.811,-2.563 h 9.946 q -0.376,3.315 -3.452,6.733 -4.785,5.435 -13.398,5.435 -7.11,0 -12.544,-4.58 -5.435,-4.58 -5.435,-14.903 0,-9.672 4.905,-14.834 4.905,-5.161 12.732,-5.161 z m 31.821,26.353 q 0.308,2.598 1.333,3.691 1.812,1.949 6.699,1.949 2.872,0 4.563,-0.855 1.692,-0.854 1.692,-2.563 0,-1.641 -1.367,-2.496 -1.367,-0.854 -10.151,-2.939 -6.323,-1.572 -8.921,-3.931 -2.598,-2.324 -2.598,-6.699 0,-5.161 4.051,-8.87 4.05,-3.708 11.398,-3.708 6.973,0 11.365,2.786 4.392,2.785 5.042,9.621 h -9.741 q -0.206,-1.88 -1.06,-2.973 -1.607,-1.983 -5.469,-1.983 -3.179,0 -4.529,0.991 -1.35,0.992 -1.35,2.325 0,1.674 1.436,2.426 1.435,0.786 10.151,2.701 5.811,1.367 8.716,4.135 2.871,2.803 2.871,7.007 0,5.537 -4.119,9.041 -4.118,3.503 -12.731,3.503 -8.785,0 -12.972,-3.708 -4.187,-3.709 -4.187,-9.451 z"
         id="path3916"
         inkscape:connector-curvature="0"
         style="fill:#1b9e77" />
      <path
         d="m 143.179,378.263 q 0.479,3.452 1.88,5.161 2.564,3.11 8.784,3.11 3.726,0 6.05,-0.82 4.409,-1.572 4.409,-5.845 0,-2.495 -2.187,-3.862 -2.188,-1.333 -6.87,-2.359 l -5.332,-1.196 q -7.862,-1.777 -10.869,-3.862 -5.093,-3.487 -5.093,-10.904 0,-6.767 4.922,-11.245 4.922,-4.477 14.458,-4.477 7.964,0 13.586,4.221 5.623,4.221 5.896,12.253 h -10.117 q -0.274,-4.545 -3.965,-6.46 -2.461,-1.264 -6.118,-1.264 -4.067,0 -6.494,1.64 -2.427,1.641 -2.427,4.581 0,2.7 2.393,4.033 1.538,0.888 6.562,2.085 l 8.682,2.085 q 5.708,1.367 8.613,3.657 4.512,3.555 4.512,10.288 0,6.904 -5.281,11.467 -5.281,4.563 -14.919,4.563 -9.844,0 -15.484,-4.494 -5.64,-4.495 -5.64,-12.356 z m 63.951,-3.077 q 0,-4.306 -1.966,-7.622 -1.965,-3.315 -6.374,-3.315 -5.298,0 -7.281,5.024 -1.025,2.666 -1.025,6.768 0,6.494 3.452,9.126 2.051,1.538 4.854,1.538 4.067,0 6.203,-3.145 2.137,-3.144 2.137,-8.374 z m -5.538,-19.448 q 6.529,0 11.058,4.82 4.528,4.819 4.528,14.15 0,9.844 -4.426,15.005 -4.426,5.161 -11.399,5.161 -4.443,0 -7.383,-2.222 -1.606,-1.23 -3.144,-3.589 v 19.414 h -9.639 v -51.918 h 9.331 v 5.502 q 1.572,-2.426 3.35,-3.828 3.247,-2.495 7.724,-2.495 z m 43.169,19.961 q -0.922,0.581 -1.862,0.94 -0.94,0.359 -2.581,0.667 l -2.188,0.41 q -3.076,0.547 -4.409,1.333 -2.256,1.333 -2.256,4.136 0,2.495 1.385,3.605 1.384,1.111 3.366,1.111 3.145,0 5.794,-1.845 2.649,-1.846 2.751,-6.734 z m -5.913,-4.546 q 2.7,-0.342 3.863,-0.854 2.085,-0.889 2.085,-2.769 0,-2.29 -1.59,-3.161 -1.589,-0.872 -4.665,-0.872 -3.452,0 -4.888,1.709 -1.025,1.265 -1.367,3.418 h -9.4 q 0.308,-4.888 2.735,-8.032 3.862,-4.922 13.261,-4.922 6.119,0 10.87,2.427 4.751,2.426 4.751,9.16 v 17.09 q 0,1.777 0.068,4.306 0.102,1.914 0.581,2.598 0.478,0.684 1.436,1.128 v 1.435 h -10.596 q -0.445,-1.128 -0.615,-2.119 -0.171,-0.991 -0.274,-2.256 -2.016,2.188 -4.648,3.726 -3.145,1.812 -7.11,1.812 -5.058,0 -8.357,-2.889 -3.298,-2.888 -3.298,-8.186 0,-6.87 5.298,-9.946 2.905,-1.675 8.545,-2.393 z m 46.553,-1.23 q -0.273,-2.085 -1.401,-3.76 -1.641,-2.256 -5.093,-2.256 -4.922,0 -6.734,4.888 -0.957,2.598 -0.957,6.904 0,4.102 0.957,6.597 1.744,4.648 6.563,4.648 3.418,0 4.853,-1.845 1.436,-1.846 1.744,-4.786 h 9.946 q -0.342,4.444 -3.213,8.409 -4.58,6.391 -13.569,6.391 -8.99,0 -13.228,-5.332 -4.238,-5.332 -4.238,-13.843 0,-9.604 4.683,-14.936 4.682,-5.332 12.919,-5.332 7.007,0 11.468,3.144 4.46,3.145 5.28,11.109 z m 31.377,-6.323 q -3.384,0 -5.247,2.119 -1.862,2.119 -2.341,5.742 h 15.142 q -0.24,-3.862 -2.342,-5.862 -2.102,-1.999 -5.212,-1.999 z m 0,-8.033 q 4.648,0 8.374,1.743 3.726,1.744 6.152,5.503 2.188,3.316 2.837,7.691 0.376,2.563 0.308,7.383 h -25.498 q 0.205,5.605 3.52,7.861 2.017,1.401 4.854,1.401 3.008,0 4.888,-1.709 1.025,-0.922 1.811,-2.563 h 9.946 q -0.376,3.315 -3.452,6.733 -4.785,5.435 -13.398,5.435 -7.11,0 -12.544,-4.58 -5.435,-4.58 -5.435,-14.903 0,-9.672 4.905,-14.834 4.905,-5.161 12.732,-5.161 z m 31.821,26.353 q 0.308,2.598 1.333,3.691 1.812,1.949 6.699,1.949 2.872,0 4.563,-0.855 1.692,-0.854 1.692,-2.563 0,-1.641 -1.367,-2.496 -1.367,-0.854 -10.151,-2.939 -6.323,-1.572 -8.921,-3.931 -2.598,-2.324 -2.598,-6.699 0,-5.161 4.051,-8.87 4.05,-3.708 11.398,-3.708 6.973,0 11.365,2.786 4.392,2.785 5.042,9.621 h -9.741 q -0.206,-1.88 -1.06,-2.973 -1.607,-1.983 -5.469,-1.983 -3.179,0 -4.529,0.991 -1.35,0.992 -1.35,2.325 0,1.674 1.436,2.426 1.435,0.786 10.151,2.701 5.811,1.367 8.716,4.135 2.871,2.803 2.871,7.007 0,5.537 -4.119,9.041 -4.118,3.503 -12.731,3.503 -8.785,0 -12.972,-3.708 -4.187,-3.709 -4.187,-9.451 z"
         id="path3918"
         inkscape:connector-curvature="0"
         style="fill-opacity:0;stroke:#1b9e77;stroke-width:1" />
    </g>
    <path
       d="m 677.5,39.314 h 624 v 248.743 h -624 z"
       id="path3922"
       inkscape:connector-curvature="0"
       style="fill-opacity:0;stroke:#1b9e77;stroke-width:5" />
    <path
       d="m 677.5,431.314 h 832 v 373.114 h -832 z"
       id="path3924"
       inkscape:connector-curvature="0"
       style="fill-opacity:0;stroke:#1b9e77;stroke-width:5" />
    <g
       id="g3930">
      <path
         d="M 779.25,755.299 528.5,1068.5"
         id="path3926"
         inkscape:connector-curvature="0"
         style="fill-opacity:0;stroke:#000000;stroke-width:7" />
      <path
         d="m 784.403,759.423 5.847,-17.864 -16.152,9.615 z"
         id="path3928"
         inkscape:connector-curvature="0"
         style="fill:#000000;fill-opacity:1;stroke:#000000;stroke-width:7;stroke-opacity:1" />
    </g>
    <text
       id="text3942"
       x="572.89294"
       y="1289.6887" />
    <text
       transform="translate(268.254,471.057)"
       id="text3946">
      <tspan
         x="-143.74699"
         y="-17"
         font-size="70"
         id="tspan3944"
         style="font-size:70px;font-family:Helvetica-Bold;fill:#000000">(named)</tspan>
    </text>
    <path
       d="m 994,490 h 236 V 754 H 994 Z"
       id="path3948"
       inkscape:connector-curvature="0"
       style="fill:#d95f02" />
    <g
       id="g3954">
      <path
         d="M 1145.842,714.224 1432.5,1068.5"
         id="path3950"
         inkscape:connector-curvature="0"
         style="fill-opacity:0;stroke:#000000;stroke-width:7" />
      <path
         d="m 1150.972,710.073 -16.201,-9.531 5.94,17.834 z"
         id="path3952"
         inkscape:connector-curvature="0"
         style="fill:#000000;fill-opacity:1;stroke:#000000;stroke-width:7;stroke-opacity:1" />
    </g>
    <g
       id="g3982">
      <path
         d="M 420.5,393.057 661.378,152.179"
         id="path3978"
         inkscape:connector-curvature="0"
         style="fill-opacity:0;stroke:#000000;stroke-width:7" />
      <path
         d="m 666.045,156.846 7.778,-17.112 -17.112,7.778 z"
         id="path3980"
         inkscape:connector-curvature="0"
         style="fill:#000000;fill-opacity:1;stroke:#000000;stroke-width:7;stroke-opacity:1" />
    </g>
    <text
       xml:space="preserve"
       style="font-style:normal;font-weight:normal;font-size:40px;line-height:1.25;font-family:sans-serif;letter-spacing:0px;word-spacing:0px;fill:#000000;fill-opacity:1;stroke:none"
       x="271.96878"
       y="1118.1283"
       id="text3995"><tspan
         sodipodi:role="line"
         x="271.96878"
         y="1118.1283"
         id="tspan3997">Each screen typically has a </tspan><tspan
         sodipodi:role="line"
         x="271.96878"
         y="1168.1283"
         id="tspan3999">full-screen browser window</tspan><tspan
         sodipodi:role="line"
         x="271.96878"
         y="1218.1283"
         id="tspan4007">running an OVE Client.</tspan></text>
    <text
       xml:space="preserve"
       style="font-style:normal;font-weight:normal;font-size:40px;line-height:1.25;font-family:sans-serif;letter-spacing:0px;word-spacing:0px;fill:#000000;fill-opacity:1;stroke:none"
       x="1098.7906"
       y="1123.1061"
       id="text3995-3"><tspan
         sodipodi:role="line"
         x="1098.7906"
         y="1123.1061"
         id="tspan4007-5">An OVE section is a rectangular</tspan><tspan
         sodipodi:role="line"
         x="1098.7906"
         y="1173.1061"
         id="tspan4038">region that can span multiple clients,</tspan><tspan
         sodipodi:role="line"
         x="1098.7906"
         y="1223.1061"
         id="tspan4040">and runs a single OVE App.</tspan><tspan
         sodipodi:role="line"
         x="1098.7906"
         y="1273.1061"
         id="tspan4042" /><tspan
         sodipodi:role="line"
         x="1098.7906"
         y="1323.1061"
         id="tspan4044">Sections may overlap.</tspan></text>
  </g>
</svg>
