<?xml version="1.0" encoding="UTF-8"?>
<!DOCTYPE svg PUBLIC "-//W3C//DTD SVG 1.1//EN" "http://www.w3.org/Graphics/SVG/1.1/DTD/svg11.dtd">
<svg version="1.1" xmlns="http://www.w3.org/2000/svg" xmlns:xlink="http://www.w3.org/1999/xlink" x="0" y="0" width="2012.599" height="1615.748" viewBox="0, 0, 2012.599, 1615.748">
  <g id="Layer_1">
    <path d="M677.5,39.314 L885.5,39.314 L885.5,163.686 L677.5,163.686 L677.5,39.314 z" fill-opacity="0" stroke="#000000" stroke-width="3"/>
    <path d="M885.5,39.314 L1093.5,39.314 L1093.5,163.686 L885.5,163.686 L885.5,39.314 z" fill-opacity="0" stroke="#000000" stroke-width="3"/>
    <path d="M1093.5,39.314 L1301.5,39.314 L1301.5,163.686 L1093.5,163.686 L1093.5,39.314 z" fill-opacity="0" stroke="#000000" stroke-width="3"/>
    <path d="M677.5,163.686 L885.5,163.686 L885.5,288.057 L677.5,288.057 L677.5,163.686 z" fill-opacity="0" stroke="#000000" stroke-width="3"/>
    <path d="M885.5,163.686 L1093.5,163.686 L1093.5,288.057 L885.5,288.057 L885.5,163.686 z" fill-opacity="0" stroke="#000000" stroke-width="3"/>
    <path d="M1093.5,163.686 L1301.5,163.686 L1301.5,288.057 L1093.5,288.057 L1093.5,163.686 z" fill-opacity="0" stroke="#000000" stroke-width="3"/>
    <g>
      <path d="M677.5,431.314 L885.5,431.314 L885.5,555.686 L677.5,555.686 L677.5,431.314 z" fill-opacity="0" stroke="#000000" stroke-width="3"/>
      <path d="M885.5,431.314 L1093.5,431.314 L1093.5,555.686 L885.5,555.686 L885.5,431.314 z" fill-opacity="0" stroke="#000000" stroke-width="3"/>
      <path d="M1093.5,431.314 L1301.5,431.314 L1301.5,555.686 L1093.5,555.686 L1093.5,431.314 z" fill-opacity="0" stroke="#000000" stroke-width="3"/>
      <path d="M1301.5,431.314 L1509.5,431.314 L1509.5,555.686 L1301.5,555.686 L1301.5,431.314 z" fill-opacity="0" stroke="#000000" stroke-width="3"/>
      <path d="M677.5,555.686 L885.5,555.686 L885.5,680.057 L677.5,680.057 L677.5,555.686 z" fill-opacity="0" stroke="#000000" stroke-width="3"/>
      <path d="M885.5,555.686 L1093.5,555.686 L1093.5,680.057 L885.5,680.057 L885.5,555.686 z" fill-opacity="0" stroke="#000000" stroke-width="3"/>
      <path d="M1093.5,555.686 L1301.5,555.686 L1301.5,680.057 L1093.5,680.057 L1093.5,555.686 z" fill-opacity="0" stroke="#000000" stroke-width="3"/>
      <path d="M1301.5,555.686 L1509.5,555.686 L1509.5,680.057 L1301.5,680.057 L1301.5,555.686 z" fill-opacity="0" stroke="#000000" stroke-width="3"/>
      <path d="M677.5,680.057 L885.5,680.057 L885.5,804.428 L677.5,804.428 L677.5,680.057 z" fill-opacity="0" stroke="#000000" stroke-width="3"/>
      <path d="M885.5,680.057 L1093.5,680.057 L1093.5,804.428 L885.5,804.428 L885.5,680.057 z" fill-opacity="0" stroke="#000000" stroke-width="3"/>
      <path d="M1093.5,680.057 L1301.5,680.057 L1301.5,804.428 L1093.5,804.428 L1093.5,680.057 z" fill-opacity="0" stroke="#000000" stroke-width="3"/>
      <path d="M1301.5,680.057 L1509.5,680.057 L1509.5,804.428 L1301.5,804.428 L1301.5,680.057 z" fill-opacity="0" stroke="#000000" stroke-width="3"/>
    </g>
    <g>
      <path d="M661.378,633.935 L420.5,393.057" fill-opacity="0" stroke="#000000" stroke-width="7"/>
      <path d="M656.711,638.602 L673.823,646.38 L666.045,629.268 z" fill="#000000" fill-opacity="1" stroke="#000000" stroke-width="7" stroke-opacity="1"/>
    </g>
    <g>
      <path d="M143.179,378.263 Q143.658,381.715 145.059,383.424 Q147.623,386.534 153.843,386.534 Q157.569,386.534 159.893,385.714 Q164.302,384.142 164.302,379.869 Q164.302,377.374 162.115,376.007 Q159.927,374.674 155.245,373.648 L149.913,372.452 Q142.051,370.675 139.044,368.59 Q133.951,365.103 133.951,357.686 Q133.951,350.919 138.873,346.441 Q143.795,341.964 153.331,341.964 Q161.295,341.964 166.917,346.185 Q172.54,350.406 172.813,358.438 L162.696,358.438 Q162.422,353.893 158.731,351.978 Q156.27,350.714 152.613,350.714 Q148.546,350.714 146.119,352.354 Q143.692,353.995 143.692,356.935 Q143.692,359.635 146.085,360.968 Q147.623,361.856 152.647,363.053 L161.329,365.138 Q167.037,366.505 169.942,368.795 Q174.454,372.35 174.454,379.083 Q174.454,385.987 169.173,390.55 Q163.892,395.113 154.254,395.113 Q144.41,395.113 138.77,390.619 Q133.13,386.124 133.13,378.263 z M207.13,375.186 Q207.13,370.88 205.164,367.564 Q203.199,364.249 198.79,364.249 Q193.492,364.249 191.509,369.273 Q190.484,371.939 190.484,376.041 Q190.484,382.535 193.936,385.167 Q195.987,386.705 198.79,386.705 Q202.857,386.705 204.993,383.56 Q207.13,380.416 207.13,375.186 z M201.592,355.738 Q208.121,355.738 212.65,360.558 Q217.178,365.377 217.178,374.708 Q217.178,384.552 212.752,389.713 Q208.326,394.874 201.353,394.874 Q196.91,394.874 193.97,392.652 Q192.364,391.422 190.826,389.063 L190.826,408.477 L181.187,408.477 L181.187,356.559 L190.518,356.559 L190.518,362.061 Q192.09,359.635 193.868,358.233 Q197.115,355.738 201.592,355.738 z M244.761,375.699 Q243.839,376.28 242.899,376.639 Q241.959,376.998 240.318,377.306 L238.13,377.716 Q235.054,378.263 233.721,379.049 Q231.465,380.382 231.465,383.185 Q231.465,385.68 232.85,386.79 Q234.234,387.901 236.216,387.901 Q239.361,387.901 242.01,386.056 Q244.659,384.21 244.761,379.322 z M238.848,371.153 Q241.548,370.811 242.711,370.299 Q244.796,369.41 244.796,367.53 Q244.796,365.24 243.206,364.369 Q241.617,363.497 238.541,363.497 Q235.089,363.497 233.653,365.206 Q232.628,366.471 232.286,368.624 L222.886,368.624 Q223.194,363.736 225.621,360.592 Q229.483,355.67 238.882,355.67 Q245.001,355.67 249.752,358.097 Q254.503,360.523 254.503,367.257 L254.503,384.347 Q254.503,386.124 254.571,388.653 Q254.673,390.567 255.152,391.251 Q255.63,391.935 256.588,392.379 L256.588,393.814 L245.992,393.814 Q245.547,392.686 245.377,391.695 Q245.206,390.704 245.103,389.439 Q243.087,391.627 240.455,393.165 Q237.31,394.977 233.345,394.977 Q228.287,394.977 224.988,392.088 Q221.69,389.2 221.69,383.902 Q221.69,377.032 226.988,373.956 Q229.893,372.281 235.533,371.563 z M285.401,369.923 Q285.128,367.838 284,366.163 Q282.359,363.907 278.907,363.907 Q273.985,363.907 272.173,368.795 Q271.216,371.393 271.216,375.699 Q271.216,379.801 272.173,382.296 Q273.917,386.944 278.736,386.944 Q282.154,386.944 283.589,385.099 Q285.025,383.253 285.333,380.313 L295.279,380.313 Q294.937,384.757 292.066,388.722 Q287.486,395.113 278.497,395.113 Q269.507,395.113 265.269,389.781 Q261.031,384.449 261.031,375.938 Q261.031,366.334 265.714,361.002 Q270.396,355.67 278.633,355.67 Q285.64,355.67 290.101,358.814 Q294.561,361.959 295.381,369.923 z M316.778,363.6 Q313.394,363.6 311.531,365.719 Q309.669,367.838 309.19,371.461 L324.332,371.461 Q324.092,367.599 321.99,365.599 Q319.888,363.6 316.778,363.6 z M316.778,355.567 Q321.426,355.567 325.152,357.31 Q328.878,359.054 331.304,362.813 Q333.492,366.129 334.141,370.504 Q334.517,373.067 334.449,377.887 L308.951,377.887 Q309.156,383.492 312.471,385.748 Q314.488,387.149 317.325,387.149 Q320.333,387.149 322.213,385.44 Q323.238,384.518 324.024,382.877 L333.97,382.877 Q333.594,386.192 330.518,389.61 Q325.733,395.045 317.12,395.045 Q310.01,395.045 304.576,390.465 Q299.141,385.885 299.141,375.562 Q299.141,365.89 304.046,360.728 Q308.951,355.567 316.778,355.567 z M348.599,381.92 Q348.907,384.518 349.932,385.611 Q351.744,387.56 356.631,387.56 Q359.503,387.56 361.194,386.705 Q362.886,385.851 362.886,384.142 Q362.886,382.501 361.519,381.646 Q360.152,380.792 351.368,378.707 Q345.045,377.135 342.447,374.776 Q339.849,372.452 339.849,368.077 Q339.849,362.916 343.9,359.207 Q347.95,355.499 355.298,355.499 Q362.271,355.499 366.663,358.285 Q371.055,361.07 371.705,367.906 L361.964,367.906 Q361.758,366.026 360.904,364.933 Q359.297,362.95 355.435,362.95 Q352.256,362.95 350.906,363.941 Q349.556,364.933 349.556,366.266 Q349.556,367.94 350.992,368.692 Q352.427,369.478 361.143,371.393 Q366.954,372.76 369.859,375.528 Q372.73,378.331 372.73,382.535 Q372.73,388.072 368.611,391.576 Q364.493,395.079 355.88,395.079 Q347.095,395.079 342.908,391.371 Q338.721,387.662 338.721,381.92 z" fill="#1B9E77"/>
      <path d="M143.179,378.263 Q143.658,381.715 145.059,383.424 Q147.623,386.534 153.843,386.534 Q157.569,386.534 159.893,385.714 Q164.302,384.142 164.302,379.869 Q164.302,377.374 162.115,376.007 Q159.927,374.674 155.245,373.648 L149.913,372.452 Q142.051,370.675 139.044,368.59 Q133.951,365.103 133.951,357.686 Q133.951,350.919 138.873,346.441 Q143.795,341.964 153.331,341.964 Q161.295,341.964 166.917,346.185 Q172.54,350.406 172.813,358.438 L162.696,358.438 Q162.422,353.893 158.731,351.978 Q156.27,350.714 152.613,350.714 Q148.546,350.714 146.119,352.354 Q143.692,353.995 143.692,356.935 Q143.692,359.635 146.085,360.968 Q147.623,361.856 152.647,363.053 L161.329,365.138 Q167.037,366.505 169.942,368.795 Q174.454,372.35 174.454,379.083 Q174.454,385.987 169.173,390.55 Q163.892,395.113 154.254,395.113 Q144.41,395.113 138.77,390.619 Q133.13,386.124 133.13,378.263 z M207.13,375.186 Q207.13,370.88 205.164,367.564 Q203.199,364.249 198.79,364.249 Q193.492,364.249 191.509,369.273 Q190.484,371.939 190.484,376.041 Q190.484,382.535 193.936,385.167 Q195.987,386.705 198.79,386.705 Q202.857,386.705 204.993,383.56 Q207.13,380.416 207.13,375.186 z M201.592,355.738 Q208.121,355.738 212.65,360.558 Q217.178,365.377 217.178,374.708 Q217.178,384.552 212.752,389.713 Q208.326,394.874 201.353,394.874 Q196.91,394.874 193.97,392.652 Q192.364,391.422 190.826,389.063 L190.826,408.477 L181.187,408.477 L181.187,356.559 L190.518,356.559 L190.518,362.061 Q192.09,359.635 193.868,358.233 Q197.115,355.738 201.592,355.738 z M244.761,375.699 Q243.839,376.28 242.899,376.639 Q241.959,376.998 240.318,377.306 L238.13,377.716 Q235.054,378.263 233.721,379.049 Q231.465,380.382 231.465,383.185 Q231.465,385.68 232.85,386.79 Q234.234,387.901 236.216,387.901 Q239.361,387.901 242.01,386.056 Q244.659,384.21 244.761,379.322 z M238.848,371.153 Q241.548,370.811 242.711,370.299 Q244.796,369.41 244.796,367.53 Q244.796,365.24 243.206,364.369 Q241.617,363.497 238.541,363.497 Q235.089,363.497 233.653,365.206 Q232.628,366.471 232.286,368.624 L222.886,368.624 Q223.194,363.736 225.621,360.592 Q229.483,355.67 238.882,355.67 Q245.001,355.67 249.752,358.097 Q254.503,360.523 254.503,367.257 L254.503,384.347 Q254.503,386.124 254.571,388.653 Q254.673,390.567 255.152,391.251 Q255.63,391.935 256.588,392.379 L256.588,393.814 L245.992,393.814 Q245.547,392.686 245.377,391.695 Q245.206,390.704 245.103,389.439 Q243.087,391.627 240.455,393.165 Q237.31,394.977 233.345,394.977 Q228.287,394.977 224.988,392.088 Q221.69,389.2 221.69,383.902 Q221.69,377.032 226.988,373.956 Q229.893,372.281 235.533,371.563 z M285.401,369.923 Q285.128,367.838 284,366.163 Q282.359,363.907 278.907,363.907 Q273.985,363.907 272.173,368.795 Q271.216,371.393 271.216,375.699 Q271.216,379.801 272.173,382.296 Q273.917,386.944 278.736,386.944 Q282.154,386.944 283.589,385.099 Q285.025,383.253 285.333,380.313 L295.279,380.313 Q294.937,384.757 292.066,388.722 Q287.486,395.113 278.497,395.113 Q269.507,395.113 265.269,389.781 Q261.031,384.449 261.031,375.938 Q261.031,366.334 265.714,361.002 Q270.396,355.67 278.633,355.67 Q285.64,355.67 290.101,358.814 Q294.561,361.959 295.381,369.923 z M316.778,363.6 Q313.394,363.6 311.531,365.719 Q309.669,367.838 309.19,371.461 L324.332,371.461 Q324.092,367.599 321.99,365.599 Q319.888,363.6 316.778,363.6 z M316.778,355.567 Q321.426,355.567 325.152,357.31 Q328.878,359.054 331.304,362.813 Q333.492,366.129 334.141,370.504 Q334.517,373.067 334.449,377.887 L308.951,377.887 Q309.156,383.492 312.471,385.748 Q314.488,387.149 317.325,387.149 Q320.333,387.149 322.213,385.44 Q323.238,384.518 324.024,382.877 L333.97,382.877 Q333.594,386.192 330.518,389.61 Q325.733,395.045 317.12,395.045 Q310.01,395.045 304.576,390.465 Q299.141,385.885 299.141,375.562 Q299.141,365.89 304.046,360.728 Q308.951,355.567 316.778,355.567 z M348.599,381.92 Q348.907,384.518 349.932,385.611 Q351.744,387.56 356.631,387.56 Q359.503,387.56 361.194,386.705 Q362.886,385.851 362.886,384.142 Q362.886,382.501 361.519,381.646 Q360.152,380.792 351.368,378.707 Q345.045,377.135 342.447,374.776 Q339.849,372.452 339.849,368.077 Q339.849,362.916 343.9,359.207 Q347.95,355.499 355.298,355.499 Q362.271,355.499 366.663,358.285 Q371.055,361.07 371.705,367.906 L361.964,367.906 Q361.758,366.026 360.904,364.933 Q359.297,362.95 355.435,362.95 Q352.256,362.95 350.906,363.941 Q349.556,364.933 349.556,366.266 Q349.556,367.94 350.992,368.692 Q352.427,369.478 361.143,371.393 Q366.954,372.76 369.859,375.528 Q372.73,378.331 372.73,382.535 Q372.73,388.072 368.611,391.576 Q364.493,395.079 355.88,395.079 Q347.095,395.079 342.908,391.371 Q338.721,387.662 338.721,381.92 z" fill-opacity="0" stroke="#1B9E77" stroke-width="1"/>
    </g>
    <path d="M677.5,39.314 L1301.5,39.314 L1301.5,288.057 L677.5,288.057 L677.5,39.314 z" fill-opacity="0" stroke="#1B9E77" stroke-width="5"/>
    <path d="M677.5,431.314 L1509.5,431.314 L1509.5,804.428 L677.5,804.428 L677.5,431.314 z" fill-opacity="0" stroke="#1B9E77" stroke-width="5"/>
    <g>
      <path d="M779.25,755.299 L528.5,1068.5" fill-opacity="0" stroke="#000000" stroke-width="7"/>
      <path d="M784.403,759.423 L790.25,741.559 L774.098,751.174 z" fill="#000000" fill-opacity="1" stroke="#000000" stroke-width="7" stroke-opacity="1"/>
    </g>
    <text transform="matrix(1, 0, 0, 1, 582.394, 1279)">
      <tspan x="-457.887" y="-143" font-family="Helvetica" font-size="70" fill="#000000">Each </tspan>
      <tspan x="-278.888" y="-143" font-family="Helvetica-Bold" font-size="70" fill="#000000">OVE client </tspan>
      <tspan x="90.662" y="-143" font-family="Helvetica" font-size="70" fill="#000000">typically </tspan>
      <tspan x="-457.887" y="-59" font-family="Helvetica" font-size="70" fill="#000000">runs in a full-screen browser </tspan>
      <tspan x="-457.887" y="25" font-family="Helvetica" font-size="70" fill="#000000">window on each screen.</tspan>
    </text>
    <text transform="matrix(1, 0, 0, 1, 268.254, 471.057)">
      <tspan x="-143.747" y="-17" font-family="Helvetica-Bold" font-size="70" fill="#000000">(named)</tspan>
    </text>
    <path d="M994,490 L1230,490 L1230,754 L994,754 L994,490 z" fill="#D95F02"/>
    <g>
      <path d="M1145.842,714.224 L1432.5,1068.5" fill-opacity="0" stroke="#000000" stroke-width="7"/>
      <path d="M1150.972,710.073 L1134.771,700.542 L1140.711,718.376 z" fill="#000000" fill-opacity="1" stroke="#000000" stroke-width="7" stroke-opacity="1"/>
    </g>
    <text transform="matrix(1, 0, 0, 1, 1596.598, 1321)">
      <tspan x="-431.402" y="-185" font-family="Helvetica" font-size="70" fill="#000000">An </tspan>
      <tspan x="-326.333" y="-185" font-family="Helvetica-Bold" font-size="70" fill="#000000">OVE section</tspan>
      <tspan x="86.01" y="-185" font-family="Helvetica" font-size="70" fill="#000000">&#160;is a </tspan>
      <tspan x="-431.402" y="-101" font-family="Helvetica" font-size="70" fill="#000000">rectangular region that can </tspan>
      <tspan x="-431.402" y="-17" font-family="Helvetica" font-size="70" fill="#000000">span multiple clients, and </tspan>
      <tspan x="-431.402" y="67" font-family="Helvetica" font-size="70" fill="#000000">runs a single </tspan>
      <tspan x="-15.059" y="67" font-family="Helvetica-Bold" font-size="70" fill="#000000">OVE app</tspan>
      <tspan x="276.665" y="67" font-family="Helvetica" font-size="70" fill="#000000">.</tspan>
      <tspan x="-431.402" y="235" font-family="Helvetica-Bold" font-size="70" fill="#000000">Sections</tspan>
      <tspan x="-139.644" y="235" font-family="Helvetica" font-size="70" fill="#000000">&#160;may overlap.</tspan>
    </text>
    <g>
      <path d="M420.5,393.057 L661.378,152.179" fill-opacity="0" stroke="#000000" stroke-width="7"/>
      <path d="M666.045,156.846 L673.823,139.734 L656.711,147.512 z" fill="#000000" fill-opacity="1" stroke="#000000" stroke-width="7" stroke-opacity="1"/>
    </g>
  </g>
</svg>
