<?xml version="1.0" encoding="UTF-8"?>
<!DOCTYPE svg PUBLIC "-//W3C//DTD SVG 1.1//EN" "http://www.w3.org/Graphics/SVG/1.1/DTD/svg11.dtd">
<svg version="1.1" xmlns="http://www.w3.org/2000/svg" xmlns:xlink="http://www.w3.org/1999/xlink" x="0" y="0" width="2437.795" height="1020.472" viewBox="0, 0, 2437.795, 1020.472">
  <g id="Layer_1">
    <g>
      <path d="M320.599,279.73 L694.608,279.73 L694.608,533.157 L320.599,533.157 L320.599,279.73 z" fill="#D95F02"/>
      <path d="M83,152.758 L508.103,152.758 L508.103,406.943 L83,406.943 L83,152.758 z" fill-opacity="0" stroke="#000000" stroke-width="3"/>
      <path d="M508.103,152.758 L933.206,152.758 L933.206,406.943 L508.103,406.943 L508.103,152.758 z" fill-opacity="0" stroke="#000000" stroke-width="3"/>
      <path d="M83,406.943 L508.103,406.943 L508.103,661.129 L83,661.129 L83,406.943 z" fill-opacity="0" stroke="#000000" stroke-width="3"/>
      <path d="M508.103,406.943 L933.207,406.943 L933.207,661.129 L508.103,661.129 L508.103,406.943 z" fill-opacity="0" stroke="#000000" stroke-width="3"/>
      <path d="M83,152.758 L933.206,152.758 L933.206,661.129 L83,661.129 L83,152.758 z" fill-opacity="0" stroke="#1B9E77" stroke-width="5"/>
    </g>
    <g>
      <path d="M1496.273,279.823 L1683.414,279.823 L1683.414,406.629 L1496.273,406.629 L1496.273,279.823 z" fill="#D95F02"/>
      <path d="M1258.5,152.758 L1683.914,152.758 L1683.914,407.129 L1258.5,407.129 L1258.5,152.758 z" fill-opacity="0" stroke="#000000" stroke-width="3"/>
    </g>
    <g>
      <path d="M1912,279.823 L2099.141,279.823 L2099.141,406.629 L1912,406.629 L1912,279.823 z" fill="#D95F02"/>
      <path d="M1912.5,152.758 L2337.914,152.758 L2337.914,407.129 L1912.5,407.129 L1912.5,152.758 z" fill-opacity="0" stroke="#000000" stroke-width="3"/>
    </g>
    <g>
      <path d="M1496.273,660.629 L1683.414,660.629 L1683.414,787.435 L1496.273,787.435 L1496.273,660.629 z" fill="#D95F02"/>
      <path d="M1258.5,661.129 L1683.914,661.129 L1683.914,915.5 L1258.5,915.5 L1258.5,661.129 z" fill-opacity="0" stroke="#000000" stroke-width="3"/>
    </g>
    <g>
      <path d="M1910.724,659.103 L2098.988,659.103 L2098.988,786.67 L1910.724,786.67 L1910.724,659.103 z" fill="#D95F02"/>
      <path d="M1911.224,659.603 L2339.189,659.603 L2339.189,915.5 L1911.224,915.5 L1911.224,659.603 z" fill-opacity="0" stroke="#000000" stroke-width="3"/>
    </g>
    <g>
      <path d="M1599.377,160.958 L1599.377,272.2" fill-opacity="0" stroke="#000000" stroke-width="2"/>
      <path d="M1602.977,162.958 L1599.377,154.958 L1595.776,162.958 M1599.377,160.958 L1599.377,154.958 M1605.377,153.758 L1593.377,153.758" fill-opacity="0" stroke="#000000" stroke-width="2" stroke-opacity="1"/>
      <path d="M1595.776,270.2 L1599.377,278.2 L1602.977,270.2 M1599.377,272.2 L1599.377,278.2 M1593.377,279.4 L1605.377,279.4" fill-opacity="0" stroke="#000000" stroke-width="2" stroke-opacity="1"/>
    </g>
    <g>
      <path d="M2014.5,160.958 L2014.5,272.2" fill-opacity="0" stroke="#000000" stroke-width="2"/>
      <path d="M2018.1,162.958 L2014.5,154.958 L2010.9,162.958 M2014.5,160.958 L2014.5,154.958 M2020.5,153.758 L2008.5,153.758" fill-opacity="0" stroke="#000000" stroke-width="2" stroke-opacity="1"/>
      <path d="M2010.9,270.2 L2014.5,278.2 L2018.1,270.2 M2014.5,272.2 L2014.5,278.2 M2008.5,279.4 L2020.5,279.4" fill-opacity="0" stroke="#000000" stroke-width="2" stroke-opacity="1"/>
    </g>
    <g>
      <path d="M1585.697,796.058 L1585.697,907.3" fill-opacity="0" stroke="#000000" stroke-width="2"/>
      <path d="M1589.297,798.058 L1585.697,790.058 L1582.097,798.058 M1585.697,796.058 L1585.697,790.058 M1591.697,788.858 L1579.697,788.858" fill-opacity="0" stroke="#000000" stroke-width="2" stroke-opacity="1"/>
      <path d="M1582.097,905.3 L1585.697,913.3 L1589.297,905.3 M1585.697,907.3 L1585.697,913.3 M1579.697,914.5 L1591.697,914.5" fill-opacity="0" stroke="#000000" stroke-width="2" stroke-opacity="1"/>
    </g>
    <g>
      <path d="M2002.5,796.058 L2002.5,907.3" fill-opacity="0" stroke="#000000" stroke-width="2"/>
      <path d="M2006.1,798.058 L2002.5,790.058 L1998.9,798.058 M2002.5,796.058 L2002.5,790.058 M2008.5,788.858 L1996.5,788.858" fill-opacity="0" stroke="#000000" stroke-width="2" stroke-opacity="1"/>
      <path d="M1998.9,905.3 L2002.5,913.3 L2006.1,905.3 M2002.5,907.3 L2002.5,913.3 M1996.5,914.5 L2008.5,914.5" fill-opacity="0" stroke="#000000" stroke-width="2" stroke-opacity="1"/>
    </g>
    <g>
      <path d="M1487.3,721.679 L1269.7,721.679" fill-opacity="0" stroke="#000000" stroke-width="2"/>
      <path d="M1485.3,725.279 L1493.3,721.679 L1485.3,718.079 M1487.3,721.679 L1493.3,721.679 M1494.5,727.679 L1494.5,715.679" fill-opacity="0" stroke="#000000" stroke-width="2" stroke-opacity="1"/>
      <path d="M1271.7,718.079 L1263.7,721.679 L1271.7,725.279 M1269.7,721.679 L1263.7,721.679 M1262.5,715.679 L1262.5,727.679" fill-opacity="0" stroke="#000000" stroke-width="2" stroke-opacity="1"/>
    </g>
    <text transform="matrix(1, 0, 0, 1, 1495.027, 206.079)">
      <tspan x="-101.027" y="7.5" font-family="Courier" font-size="30" fill="#000000">margin-top</tspan>
    </text>
    <g>
      <path d="M2326.714,721.679 L2109.114,721.679" fill-opacity="0" stroke="#000000" stroke-width="2"/>
      <path d="M2324.714,725.279 L2332.714,721.679 L2324.714,718.079 M2326.714,721.679 L2332.714,721.679 M2333.914,727.679 L2333.914,715.679" fill-opacity="0" stroke="#000000" stroke-width="2" stroke-opacity="1"/>
      <path d="M2111.114,718.079 L2103.114,721.679 L2111.114,725.279 M2109.114,721.679 L2103.114,721.679 M2101.914,715.679 L2101.914,727.679" fill-opacity="0" stroke="#000000" stroke-width="2" stroke-opacity="1"/>
    </g>
    <text transform="matrix(1, 0, 0, 1, 2124.707, 216.079)">
      <tspan x="-101.027" y="7.5" font-family="Courier" font-size="30" fill="#000000">margin-top</tspan>
    </text>
    <text transform="matrix(1, 0, 0, 1, 1375, 752.5)">
      <tspan x="-101.027" y="7.5" font-family="Courier" font-size="30" fill="#000000">margin-left</tspan>
    </text>
    <text transform="matrix(1, 0, 0, 1, 2243.414, 768)">
      <tspan x="-129.027" y="-8" font-family="Courier" font-size="30" fill="#000000">margin-right</tspan>
    </text>
    <text transform="matrix(1, 0, 0, 1, 1470.707, 878)">
      <tspan x="-130.027" y="-8" font-family="Courier" font-size="30" fill="#000000">margin-bottom</tspan>
    </text>
    <text transform="matrix(1, 0, 0, 1, 2144.973, 851.179)">
      <tspan x="-130.027" y="-8" font-family="Courier" font-size="30" fill="#000000">margin-bottom</tspan>
    </text>
    <text transform="matrix(1, 0, 0, 1, 1482.707, 475.667)">
      <tspan x="-218.027" y="-8" font-family="Courier" font-size="30" fill="#000000">window.ove.layout.</tspan>
      <tspan x="106.026" y="-8" font-family="Courier-Bold" font-size="30" fill="#000000">x</tspan>
      <tspan x="124.029" y="-8" font-family="Courier" font-size="30" fill="#000000"> = 0</tspan>
      <tspan x="-218.027" y="28" font-family="Courier" font-size="30" fill="#000000">window.ove.layout.</tspan>
      <tspan x="106.026" y="28" font-family="Courier-Bold" font-size="30" fill="#000000">y</tspan>
      <tspan x="124.029" y="28" font-family="Courier" font-size="30" fill="#000000"> = 0</tspan>
    </text>
    <text transform="matrix(1, 0, 0, 1, 2119.387, 495.667)">
      <tspan x="-218.027" y="4.667" font-family="Courier" font-size="30" fill="#000000">window.ove.layout.</tspan>
      <tspan x="106.026" y="4.667" font-family="Courier-Bold" font-size="30" fill="#000000">y = 0</tspan>
    </text>
    <g>
      <path d="M1675.714,419.5 L1503.53,419.5" fill-opacity="0" stroke="#2A9A76" stroke-width="2"/>
      <path d="M1673.714,423.1 L1681.714,419.5 L1673.714,415.9 M1675.714,419.5 L1681.714,419.5 M1682.914,425.5 L1682.914,413.5" fill-opacity="0" stroke="#2A9A76" stroke-width="2" stroke-opacity="1"/>
      <path d="M1505.53,415.9 L1497.53,419.5 L1505.53,423.1 M1503.53,419.5 L1497.53,419.5 M1496.33,413.5 L1496.33,425.5" fill-opacity="0" stroke="#2A9A76" stroke-width="2" stroke-opacity="1"/>
    </g>
    <path d="M1893.5,470.5 C1756.386,470.5 1645.234,447.666 1645.234,419.5" fill-opacity="0" stroke="#2A9A76" stroke-width="2"/>
    <g>
      <path d="M1676.864,649.5 L1512.53,649.5" fill-opacity="0" stroke="#1B9E77" stroke-width="2"/>
      <path d="M1674.864,653.1 L1682.864,649.5 L1674.864,645.9 M1676.864,649.5 L1682.864,649.5 M1684.064,655.5 L1684.064,643.5" fill-opacity="0" stroke="#1B9E77" stroke-width="2" stroke-opacity="1"/>
      <path d="M1514.53,645.9 L1506.53,649.5 L1514.53,653.1 M1512.53,649.5 L1506.53,649.5 M1505.33,643.5 L1505.33,655.5" fill-opacity="0" stroke="#1B9E77" stroke-width="2" stroke-opacity="1"/>
    </g>
    <path d="M1893.5,573.833 C1761.357,573.833 1654.234,607.71 1654.234,649.5" fill-opacity="0" stroke="#1B9E77" stroke-width="2"/>
    <path d="M1915.586,575.558 L1913.697,582.516 Q1913.55,583.073 1913.257,583.293 Q1912.964,583.513 1912.378,583.513 Q1911.851,583.513 1911.558,583.234 Q1911.265,582.956 1911.031,582.224 L1907.676,571.545 L1907.544,571.545 Q1906.929,571.545 1906.658,571.303 Q1906.387,571.061 1906.387,570.49 Q1906.387,569.992 1906.673,569.728 Q1906.958,569.465 1907.515,569.465 L1911.426,569.465 Q1912.217,569.465 1912.495,569.692 Q1912.774,569.919 1912.774,570.49 Q1912.774,570.842 1912.613,571.098 Q1912.451,571.354 1912.202,571.413 Q1911.953,571.486 1911.624,571.516 Q1911.294,571.545 1910.825,571.545 L1909.976,571.545 L1912.495,580.334 L1914.385,573.947 Q1914.546,573.391 1914.839,573.171 Q1915.132,572.951 1915.703,572.951 Q1916.231,572.951 1916.531,573.237 Q1916.831,573.522 1917.066,574.24 L1918.897,580.334 L1921.314,571.545 L1920.962,571.545 L1920.332,571.545 Q1919.322,571.545 1918.97,571.318 Q1918.618,571.091 1918.618,570.49 Q1918.618,569.904 1918.882,569.684 Q1919.146,569.465 1919.907,569.465 L1923.833,569.465 Q1924.287,569.465 1924.514,569.728 Q1924.741,569.992 1924.741,570.49 Q1924.741,571.047 1924.478,571.281 Q1924.214,571.516 1923.482,571.545 L1920.186,582.516 Q1919.995,583.073 1919.71,583.293 Q1919.424,583.513 1918.853,583.513 Q1918.325,583.513 1918.018,583.227 Q1917.71,582.941 1917.505,582.224 z M1932.329,565.246 Q1932.329,563.664 1932.615,563.254 Q1932.901,562.844 1933.838,562.844 Q1934.746,562.844 1935.039,563.188 Q1935.332,563.532 1935.332,564.821 Q1935.332,566.081 1935.061,566.381 Q1934.79,566.682 1933.838,566.682 Q1932.901,566.682 1932.615,566.403 Q1932.329,566.125 1932.329,565.246 z M1935.039,580.934 L1939.741,580.934 Q1940.313,580.934 1940.584,581.176 Q1940.855,581.418 1940.855,581.945 Q1940.855,582.546 1940.598,582.773 Q1940.342,583 1939.654,583 L1928.286,583 Q1927.7,583 1927.407,582.736 Q1927.115,582.473 1927.115,581.945 Q1927.115,581.432 1927.422,581.183 Q1927.73,580.934 1928.345,580.934 L1932.813,580.934 L1932.813,571.545 L1929.956,571.545 Q1929.356,571.545 1929.041,571.274 Q1928.726,571.003 1928.726,570.49 Q1928.726,569.977 1929.019,569.721 Q1929.312,569.465 1929.898,569.465 L1934.19,569.465 Q1934.585,569.465 1934.812,569.626 Q1935.039,569.787 1935.039,570.065 z M1946.231,580.934 L1946.231,571.545 L1945.952,571.545 Q1944.956,571.545 1944.583,571.31 Q1944.209,571.076 1944.209,570.49 Q1944.209,569.948 1944.517,569.706 Q1944.824,569.465 1945.513,569.465 L1946.201,569.465 L1947.608,569.465 Q1948.003,569.465 1948.223,569.626 Q1948.443,569.787 1948.443,570.065 L1948.443,571.061 Q1949.512,570.065 1950.559,569.589 Q1951.607,569.113 1952.735,569.113 Q1954.947,569.113 1956.214,570.49 Q1957.481,571.867 1957.481,574.299 L1957.481,580.934 L1958.169,580.934 Q1958.902,580.934 1959.224,581.176 Q1959.546,581.418 1959.546,581.945 Q1959.546,582.516 1959.202,582.758 Q1958.858,583 1957.979,583 L1954.741,583 Q1953.804,583 1953.54,582.78 Q1953.277,582.56 1953.277,581.945 Q1953.277,581.374 1953.584,581.154 Q1953.892,580.934 1954.741,580.934 L1955.254,580.934 L1955.254,574.841 Q1955.254,573.127 1954.478,572.226 Q1953.701,571.325 1952.222,571.325 Q1950.728,571.325 1949.585,572.336 Q1948.443,573.347 1948.443,574.841 L1948.443,580.934 L1948.955,580.934 Q1949.834,580.934 1950.142,581.154 Q1950.449,581.374 1950.449,581.945 Q1950.449,582.56 1950.186,582.78 Q1949.922,583 1948.897,583 L1946.231,583 L1945.44,583 Q1944.839,583 1944.539,582.744 Q1944.239,582.487 1944.239,581.945 Q1944.239,581.359 1944.583,581.147 Q1944.927,580.934 1945.923,580.934 z M1974.092,583 Q1973.784,583 1973.66,582.846 Q1973.535,582.692 1973.535,582.253 L1973.535,581.052 Q1972.656,582.15 1971.338,582.758 Q1970.02,583.366 1968.482,583.366 Q1965.713,583.366 1963.845,581.396 Q1961.978,579.426 1961.978,576.496 Q1961.978,573.464 1963.97,571.45 Q1965.962,569.435 1968.936,569.435 Q1970.445,569.435 1971.646,569.97 Q1972.847,570.505 1973.711,571.545 L1973.711,565.934 L1972.935,565.934 Q1971.66,565.934 1971.287,565.707 Q1970.913,565.48 1970.913,564.88 Q1970.913,564.352 1971.214,564.089 Q1971.514,563.825 1972.085,563.825 L1975.088,563.825 Q1975.528,563.825 1975.725,563.972 Q1975.923,564.118 1975.923,564.426 L1975.923,580.934 L1976.582,580.934 Q1977.3,580.934 1977.622,581.176 Q1977.945,581.418 1977.945,581.945 Q1977.945,582.443 1977.666,582.722 Q1977.388,583 1976.919,583 z M1964.497,576.423 Q1964.497,578.444 1965.801,579.733 Q1967.105,581.022 1969.112,581.022 Q1971.133,581.022 1972.437,579.682 Q1973.74,578.342 1973.74,576.276 Q1973.74,574.24 1972.444,572.922 Q1971.148,571.603 1969.112,571.603 Q1967.046,571.603 1965.772,572.936 Q1964.497,574.269 1964.497,576.423 z M1987.686,581.315 Q1989.942,581.315 1991.385,579.887 Q1992.827,578.459 1992.827,576.247 Q1992.827,574.035 1991.377,572.592 Q1989.927,571.149 1987.686,571.149 Q1985.445,571.149 1984.002,572.592 Q1982.559,574.035 1982.559,576.247 Q1982.559,578.474 1983.994,579.894 Q1985.43,581.315 1987.686,581.315 z M1995.376,576.247 Q1995.376,579.382 1993.238,581.374 Q1991.099,583.366 1987.686,583.366 Q1984.287,583.366 1982.149,581.374 Q1980.01,579.382 1980.01,576.247 Q1980.01,573.112 1982.149,571.127 Q1984.287,569.142 1987.686,569.142 Q1991.084,569.142 1993.23,571.135 Q1995.376,573.127 1995.376,576.247 z M2005.601,575.558 L2003.711,582.516 Q2003.565,583.073 2003.272,583.293 Q2002.979,583.513 2002.393,583.513 Q2001.865,583.513 2001.573,583.234 Q2001.28,582.956 2001.045,582.224 L1997.691,571.545 L1997.559,571.545 Q1996.944,571.545 1996.673,571.303 Q1996.402,571.061 1996.402,570.49 Q1996.402,569.992 1996.687,569.728 Q1996.973,569.465 1997.53,569.465 L2001.441,569.465 Q2002.232,569.465 2002.51,569.692 Q2002.788,569.919 2002.788,570.49 Q2002.788,570.842 2002.627,571.098 Q2002.466,571.354 2002.217,571.413 Q2001.968,571.486 2001.638,571.516 Q2001.309,571.545 2000.84,571.545 L1999.99,571.545 L2002.51,580.334 L2004.4,573.947 Q2004.561,573.391 2004.854,573.171 Q2005.147,572.951 2005.718,572.951 Q2006.245,572.951 2006.546,573.237 Q2006.846,573.522 2007.08,574.24 L2008.911,580.334 L2011.328,571.545 L2010.977,571.545 L2010.347,571.545 Q2009.336,571.545 2008.985,571.318 Q2008.633,571.091 2008.633,570.49 Q2008.633,569.904 2008.897,569.684 Q2009.16,569.465 2009.922,569.465 L2013.848,569.465 Q2014.302,569.465 2014.529,569.728 Q2014.756,569.992 2014.756,570.49 Q2014.756,571.047 2014.492,571.281 Q2014.229,571.516 2013.496,571.545 L2010.2,582.516 Q2010.01,583.073 2009.724,583.293 Q2009.439,583.513 2008.867,583.513 Q2008.34,583.513 2008.032,583.227 Q2007.725,582.941 2007.52,582.224 z M2020.821,580.598 Q2020.821,579.455 2021.619,578.723 Q2022.417,577.99 2023.692,577.99 Q2024.995,577.99 2025.786,578.708 Q2026.577,579.426 2026.577,580.598 Q2026.577,581.769 2025.779,582.487 Q2024.981,583.205 2023.692,583.205 Q2022.403,583.205 2021.612,582.487 Q2020.821,581.769 2020.821,580.598 z M2041.695,581.315 Q2043.95,581.315 2045.393,579.887 Q2046.836,578.459 2046.836,576.247 Q2046.836,574.035 2045.386,572.592 Q2043.936,571.149 2041.695,571.149 Q2039.453,571.149 2038.01,572.592 Q2036.568,574.035 2036.568,576.247 Q2036.568,578.474 2038.003,579.894 Q2039.439,581.315 2041.695,581.315 z M2049.385,576.247 Q2049.385,579.382 2047.246,581.374 Q2045.108,583.366 2041.695,583.366 Q2038.296,583.366 2036.157,581.374 Q2034.019,579.382 2034.019,576.247 Q2034.019,573.112 2036.157,571.127 Q2038.296,569.142 2041.695,569.142 Q2045.093,569.142 2047.239,571.135 Q2049.385,573.127 2049.385,576.247 z M2052.989,571.545 Q2052.022,571.545 2051.663,571.31 Q2051.304,571.076 2051.304,570.49 Q2051.304,569.977 2051.597,569.721 Q2051.89,569.465 2052.476,569.465 L2056.577,569.465 Q2057.412,569.465 2057.691,569.692 Q2057.969,569.919 2057.969,570.49 Q2057.969,571.076 2057.603,571.31 Q2057.237,571.545 2056.255,571.545 L2055.713,571.545 L2059.522,581.022 L2063.755,571.545 L2062.876,571.545 Q2061.748,571.545 2061.353,571.318 Q2060.957,571.091 2060.957,570.49 Q2060.957,569.919 2061.236,569.692 Q2061.514,569.465 2062.349,569.465 L2066.875,569.465 Q2067.461,569.465 2067.754,569.721 Q2068.047,569.977 2068.047,570.49 Q2068.047,571.076 2067.688,571.31 Q2067.329,571.545 2066.363,571.545 L2066.099,571.545 L2061.265,582.224 Q2060.899,583.029 2060.54,583.271 Q2060.181,583.513 2059.492,583.513 Q2058.863,583.513 2058.518,583.278 Q2058.174,583.044 2057.808,582.224 z M2072.749,576.877 Q2072.866,578.986 2074.177,580.136 Q2075.489,581.286 2077.759,581.286 Q2079.473,581.286 2081.494,580.37 Q2083.516,579.455 2083.941,579.455 Q2084.38,579.455 2084.673,579.733 Q2084.966,580.012 2084.966,580.422 Q2084.966,580.847 2084.658,581.198 Q2084.351,581.55 2083.677,581.887 Q2082.212,582.604 2080.652,582.985 Q2079.092,583.366 2077.554,583.366 Q2074.214,583.366 2072.207,581.44 Q2070.2,579.514 2070.2,576.335 Q2070.2,573.098 2072.324,571.091 Q2074.448,569.084 2077.862,569.084 Q2080.952,569.084 2082.989,570.959 Q2085.025,572.834 2085.025,575.5 Q2085.025,576.32 2084.68,576.599 Q2084.336,576.877 2082.813,576.877 L2082.593,576.877 z M2072.823,574.958 L2082.359,574.958 Q2082.139,573.215 2080.901,572.153 Q2079.663,571.091 2077.862,571.091 Q2075.913,571.091 2074.58,572.116 Q2073.247,573.141 2072.823,574.958 z M2092.832,580.598 Q2092.832,579.455 2093.631,578.723 Q2094.429,577.99 2095.703,577.99 Q2097.007,577.99 2097.798,578.708 Q2098.589,579.426 2098.589,580.598 Q2098.589,581.769 2097.791,582.487 Q2096.992,583.205 2095.703,583.205 Q2094.414,583.205 2093.623,582.487 Q2092.832,581.769 2092.832,580.598 z M2112.725,565.934 L2110.235,565.934 Q2108.814,565.934 2108.455,565.707 Q2108.096,565.48 2108.096,564.88 Q2108.096,564.352 2108.396,564.089 Q2108.697,563.825 2109.268,563.825 L2114.102,563.825 Q2114.497,563.825 2114.717,563.986 Q2114.937,564.147 2114.937,564.426 L2114.937,580.934 L2119.536,580.934 Q2120.093,580.934 2120.349,581.176 Q2120.606,581.418 2120.606,581.945 Q2120.606,582.546 2120.357,582.773 Q2120.108,583 2119.419,583 L2108.609,583 Q2108.037,583 2107.737,582.736 Q2107.437,582.473 2107.437,581.945 Q2107.437,581.432 2107.744,581.183 Q2108.052,580.934 2108.667,580.934 L2112.725,580.934 z M2134.961,576.525 Q2134.156,576.262 2133.401,576.137 Q2132.647,576.013 2131.9,576.013 Q2129.644,576.013 2128.34,576.774 Q2127.036,577.536 2127.036,578.825 Q2127.036,579.821 2127.849,580.466 Q2128.662,581.11 2129.922,581.11 Q2131.782,581.11 2133.372,580.136 Q2134.961,579.162 2134.961,578.107 z M2135.078,581.14 Q2133.877,582.224 2132.464,582.795 Q2131.05,583.366 2129.556,583.366 Q2127.373,583.366 2126.033,582.15 Q2124.693,580.934 2124.693,578.986 Q2124.693,576.672 2126.472,575.397 Q2128.252,574.123 2131.475,574.123 Q2132.324,574.123 2133.189,574.233 Q2134.053,574.343 2134.961,574.577 L2134.961,574.474 Q2134.961,572.79 2134.156,571.984 Q2133.35,571.179 2131.651,571.179 Q2130.508,571.179 2129.102,571.794 Q2127.696,572.409 2127.241,572.409 Q2126.817,572.409 2126.538,572.065 Q2126.26,571.721 2126.26,571.179 Q2126.26,570.314 2127.879,569.714 Q2129.497,569.113 2132.017,569.113 Q2134.595,569.113 2135.913,570.424 Q2137.232,571.735 2137.232,574.299 L2137.232,580.934 L2137.949,580.934 Q2138.99,580.934 2139.341,581.154 Q2139.693,581.374 2139.693,581.945 Q2139.693,582.473 2139.4,582.736 Q2139.107,583 2138.521,583 L2136.221,583 Q2135.811,583 2135.547,582.751 Q2135.283,582.502 2135.196,582.033 z M2148.614,586.75 L2149.243,586.75 Q2150.313,586.75 2150.694,586.977 Q2151.074,587.204 2151.074,587.805 Q2151.074,588.317 2150.774,588.581 Q2150.474,588.845 2149.903,588.845 L2143.15,588.845 Q2142.461,588.845 2142.19,588.61 Q2141.919,588.376 2141.919,587.805 Q2141.919,587.277 2142.205,587.014 Q2142.49,586.75 2143.062,586.75 L2146.24,586.75 L2148.614,582.077 L2143.238,571.545 Q2142.271,571.545 2141.912,571.31 Q2141.553,571.076 2141.553,570.49 Q2141.553,569.977 2141.846,569.721 Q2142.139,569.465 2142.725,569.465 L2146.812,569.465 Q2147.632,569.465 2147.91,569.692 Q2148.189,569.919 2148.189,570.49 Q2148.189,571.076 2147.823,571.31 Q2147.456,571.545 2146.475,571.545 L2145.933,571.545 L2149.903,579.616 L2153.946,571.545 L2153.374,571.545 Q2152.364,571.545 2151.983,571.31 Q2151.602,571.076 2151.602,570.49 Q2151.602,569.919 2151.88,569.692 Q2152.158,569.465 2152.993,569.465 L2156.612,569.465 Q2157.212,569.465 2157.498,569.721 Q2157.783,569.977 2157.783,570.49 Q2157.783,571.047 2157.461,571.281 Q2157.139,571.516 2156.319,571.545 z M2167.715,581.315 Q2169.971,581.315 2171.414,579.887 Q2172.857,578.459 2172.857,576.247 Q2172.857,574.035 2171.406,572.592 Q2169.956,571.149 2167.715,571.149 Q2165.474,571.149 2164.031,572.592 Q2162.588,574.035 2162.588,576.247 Q2162.588,578.474 2164.024,579.894 Q2165.459,581.315 2167.715,581.315 z M2175.406,576.247 Q2175.406,579.382 2173.267,581.374 Q2171.128,583.366 2167.715,583.366 Q2164.317,583.366 2162.178,581.374 Q2160.039,579.382 2160.039,576.247 Q2160.039,573.112 2162.178,571.127 Q2164.317,569.142 2167.715,569.142 Q2171.114,569.142 2173.26,571.135 Q2175.406,573.127 2175.406,576.247 z M2182.071,577.595 Q2182.071,579.44 2182.847,580.29 Q2183.623,581.14 2185.308,581.14 Q2186.905,581.14 2188.04,580.129 Q2189.175,579.118 2189.175,577.595 L2189.175,571.545 L2187.168,571.545 Q2186.597,571.545 2186.341,571.303 Q2186.084,571.061 2186.084,570.549 Q2186.084,569.992 2186.363,569.728 Q2186.641,569.465 2187.256,569.465 L2190.376,569.465 Q2190.933,569.465 2191.16,569.706 Q2191.387,569.948 2191.387,570.886 L2191.387,580.934 L2192.061,580.934 Q2192.779,580.934 2193.094,581.169 Q2193.408,581.403 2193.408,581.945 Q2193.408,582.473 2193.108,582.736 Q2192.808,583 2192.237,583 L2190.01,583 Q2189.615,583 2189.395,582.839 Q2189.175,582.678 2189.175,582.399 L2189.175,581.403 Q2187.769,582.487 2186.765,582.89 Q2185.762,583.293 2184.649,583.293 Q2182.232,583.293 2181.023,582.011 Q2179.815,580.729 2179.815,578.137 L2179.815,571.545 L2179.507,571.545 Q2178.511,571.545 2178.145,571.31 Q2177.779,571.076 2177.779,570.49 Q2177.779,569.977 2178.064,569.721 Q2178.35,569.465 2178.95,569.465 L2181.162,569.465 Q2181.675,569.465 2181.873,569.67 Q2182.071,569.875 2182.071,570.578 z M2207.72,570.285 Q2208.438,570.285 2208.767,570.534 Q2209.097,570.783 2209.097,571.325 Q2209.097,571.838 2208.789,572.094 Q2208.482,572.35 2207.866,572.35 L2201.934,572.35 L2201.934,577.243 Q2201.934,579.645 2202.556,580.407 Q2203.179,581.169 2204.688,581.169 Q2206.021,581.169 2207.881,580.392 Q2209.741,579.616 2210.181,579.616 Q2210.591,579.616 2210.877,579.909 Q2211.162,580.202 2211.162,580.627 Q2211.162,581.11 2210.803,581.469 Q2210.445,581.828 2209.58,582.165 Q2208.145,582.736 2206.995,583 Q2205.845,583.264 2204.834,583.264 Q2203.12,583.264 2201.956,582.714 Q2200.791,582.165 2200.22,581.081 Q2199.927,580.568 2199.802,579.865 Q2199.678,579.162 2199.678,577.697 L2199.678,577.243 L2199.678,572.35 L2197.188,572.35 Q2196.573,572.35 2196.294,572.109 Q2196.016,571.867 2196.016,571.325 Q2196.016,570.724 2196.397,570.505 Q2196.778,570.285 2198.023,570.285 L2199.678,570.285 L2199.678,567.282 L2199.678,566.506 Q2199.678,565.876 2199.949,565.576 Q2200.22,565.275 2200.791,565.275 Q2201.436,565.275 2201.685,565.641 Q2201.934,566.008 2201.934,567.311 L2201.934,570.285 z M2218.853,580.598 Q2218.853,579.455 2219.651,578.723 Q2220.449,577.99 2221.724,577.99 Q2223.028,577.99 2223.819,578.708 Q2224.61,579.426 2224.61,580.598 Q2224.61,581.769 2223.811,582.487 Q2223.013,583.205 2221.724,583.205 Q2220.435,583.205 2219.644,582.487 Q2218.853,581.769 2218.853,580.598 z M2238.233,572.409 L2239.785,574.24 L2241.47,572.409 Q2240.987,572.409 2240.767,572.065 Q2240.547,571.721 2240.547,570.974 Q2240.547,570.241 2240.921,569.853 Q2241.294,569.465 2242.012,569.465 L2245.132,569.465 Q2246.114,569.465 2246.538,569.846 Q2246.963,570.226 2246.963,571.091 Q2246.963,571.896 2246.546,572.285 Q2246.128,572.673 2245.249,572.673 L2244.678,572.673 L2241.616,576.013 L2245.279,579.763 L2245.615,579.763 Q2246.465,579.763 2246.897,580.165 Q2247.329,580.568 2247.329,581.374 Q2247.329,582.238 2246.883,582.619 Q2246.436,583 2245.44,583 L2241.895,583 Q2241.177,583 2240.803,582.612 Q2240.43,582.224 2240.43,581.506 Q2240.43,580.744 2240.657,580.4 Q2240.884,580.056 2241.382,580.056 L2241.499,580.056 L2239.639,577.99 L2237.837,580.056 L2237.896,580.056 Q2238.423,580.056 2238.657,580.385 Q2238.892,580.715 2238.892,581.403 Q2238.892,582.224 2238.533,582.612 Q2238.174,583 2237.427,583 L2234.307,583 Q2233.311,583 2232.893,582.619 Q2232.476,582.238 2232.476,581.374 Q2232.476,580.568 2232.879,580.165 Q2233.281,579.763 2234.087,579.763 L2234.365,579.763 L2237.837,576.247 L2234.483,572.673 L2234.029,572.673 Q2233.164,572.673 2232.725,572.277 Q2232.285,571.882 2232.285,571.091 Q2232.285,570.226 2232.725,569.846 Q2233.164,569.465 2234.146,569.465 L2237.691,569.465 Q2238.438,569.465 2238.797,569.86 Q2239.156,570.256 2239.156,571.061 Q2239.156,571.735 2238.928,572.072 Q2238.701,572.409 2238.233,572.409 z" fill="#1A936C"/>
    <g>
      <path d="M2372.94,286.858 L2372.94,402.5" fill-opacity="0" stroke="#7570B3" stroke-width="1"/>
      <path d="M2375.94,288.858 L2372.94,281.858 L2369.94,288.858 M2372.94,286.858 L2372.94,281.858 M2377.94,280.858 L2367.94,280.858" fill-opacity="0" stroke="#7570B3" stroke-width="1" stroke-opacity="1"/>
      <path d="M2369.94,400.5 L2372.94,407.5 L2375.94,400.5 M2372.94,402.5 L2372.94,407.5 M2367.94,408.5 L2377.94,408.5" fill-opacity="0" stroke="#7570B3" stroke-width="1" stroke-opacity="1"/>
    </g>
    <path d="M2259.606,612.834 C2259.606,458.93 2485.045,628.834 2372.939,334.167" fill-opacity="0" stroke="#7570B3" stroke-width="1"/>
    <path d="M1910.266,454.892 L1908.376,461.85 Q1908.23,462.407 1907.937,462.626 Q1907.644,462.846 1907.058,462.846 Q1906.531,462.846 1906.238,462.568 Q1905.945,462.289 1905.71,461.557 L1902.356,450.878 L1902.224,450.878 Q1901.609,450.878 1901.338,450.637 Q1901.067,450.395 1901.067,449.824 Q1901.067,449.325 1901.353,449.062 Q1901.638,448.798 1902.195,448.798 L1906.106,448.798 Q1906.897,448.798 1907.175,449.025 Q1907.454,449.252 1907.454,449.824 Q1907.454,450.175 1907.292,450.431 Q1907.131,450.688 1906.882,450.746 Q1906.633,450.82 1906.304,450.849 Q1905.974,450.878 1905.505,450.878 L1904.656,450.878 L1907.175,459.667 L1909.065,453.281 Q1909.226,452.724 1909.519,452.504 Q1909.812,452.284 1910.383,452.284 Q1910.911,452.284 1911.211,452.57 Q1911.511,452.856 1911.746,453.574 L1913.577,459.667 L1915.994,450.878 L1915.642,450.878 L1915.012,450.878 Q1914.001,450.878 1913.65,450.651 Q1913.298,450.424 1913.298,449.824 Q1913.298,449.238 1913.562,449.018 Q1913.826,448.798 1914.587,448.798 L1918.513,448.798 Q1918.967,448.798 1919.194,449.062 Q1919.421,449.325 1919.421,449.824 Q1919.421,450.38 1919.158,450.615 Q1918.894,450.849 1918.162,450.878 L1914.866,461.85 Q1914.675,462.407 1914.39,462.626 Q1914.104,462.846 1913.533,462.846 Q1913.005,462.846 1912.698,462.56 Q1912.39,462.275 1912.185,461.557 z M1927.009,444.579 Q1927.009,442.997 1927.295,442.587 Q1927.581,442.177 1928.518,442.177 Q1929.426,442.177 1929.719,442.521 Q1930.012,442.866 1930.012,444.155 Q1930.012,445.414 1929.741,445.715 Q1929.47,446.015 1928.518,446.015 Q1927.581,446.015 1927.295,445.737 Q1927.009,445.458 1927.009,444.579 z M1929.719,460.268 L1934.421,460.268 Q1934.993,460.268 1935.264,460.51 Q1935.535,460.751 1935.535,461.279 Q1935.535,461.879 1935.278,462.106 Q1935.022,462.333 1934.333,462.333 L1922.966,462.333 Q1922.38,462.333 1922.087,462.07 Q1921.794,461.806 1921.794,461.279 Q1921.794,460.766 1922.102,460.517 Q1922.41,460.268 1923.025,460.268 L1927.493,460.268 L1927.493,450.878 L1924.636,450.878 Q1924.036,450.878 1923.721,450.607 Q1923.406,450.336 1923.406,449.824 Q1923.406,449.311 1923.699,449.054 Q1923.992,448.798 1924.578,448.798 L1928.87,448.798 Q1929.265,448.798 1929.492,448.959 Q1929.719,449.12 1929.719,449.399 z M1940.911,460.268 L1940.911,450.878 L1940.632,450.878 Q1939.636,450.878 1939.263,450.644 Q1938.889,450.409 1938.889,449.824 Q1938.889,449.282 1939.197,449.04 Q1939.504,448.798 1940.193,448.798 L1940.881,448.798 L1942.288,448.798 Q1942.683,448.798 1942.903,448.959 Q1943.123,449.12 1943.123,449.399 L1943.123,450.395 Q1944.192,449.399 1945.239,448.923 Q1946.287,448.447 1947.415,448.447 Q1949.626,448.447 1950.894,449.824 Q1952.161,451.2 1952.161,453.632 L1952.161,460.268 L1952.849,460.268 Q1953.582,460.268 1953.904,460.51 Q1954.226,460.751 1954.226,461.279 Q1954.226,461.85 1953.882,462.092 Q1953.538,462.333 1952.659,462.333 L1949.421,462.333 Q1948.484,462.333 1948.22,462.114 Q1947.957,461.894 1947.957,461.279 Q1947.957,460.707 1948.264,460.488 Q1948.572,460.268 1949.421,460.268 L1949.934,460.268 L1949.934,454.174 Q1949.934,452.46 1949.158,451.559 Q1948.381,450.658 1946.902,450.658 Q1945.408,450.658 1944.265,451.669 Q1943.123,452.68 1943.123,454.174 L1943.123,460.268 L1943.635,460.268 Q1944.514,460.268 1944.822,460.488 Q1945.129,460.707 1945.129,461.279 Q1945.129,461.894 1944.866,462.114 Q1944.602,462.333 1943.577,462.333 L1940.911,462.333 L1940.12,462.333 Q1939.519,462.333 1939.219,462.077 Q1938.918,461.821 1938.918,461.279 Q1938.918,460.693 1939.263,460.48 Q1939.607,460.268 1940.603,460.268 z M1968.772,462.333 Q1968.464,462.333 1968.34,462.179 Q1968.215,462.026 1968.215,461.586 L1968.215,460.385 Q1967.336,461.484 1966.018,462.092 Q1964.7,462.699 1963.162,462.699 Q1960.393,462.699 1958.525,460.729 Q1956.658,458.759 1956.658,455.829 Q1956.658,452.797 1958.65,450.783 Q1960.642,448.769 1963.616,448.769 Q1965.125,448.769 1966.326,449.303 Q1967.527,449.838 1968.391,450.878 L1968.391,445.268 L1967.615,445.268 Q1966.34,445.268 1965.967,445.041 Q1965.593,444.814 1965.593,444.213 Q1965.593,443.686 1965.894,443.422 Q1966.194,443.158 1966.765,443.158 L1969.768,443.158 Q1970.208,443.158 1970.405,443.305 Q1970.603,443.451 1970.603,443.759 L1970.603,460.268 L1971.262,460.268 Q1971.98,460.268 1972.302,460.51 Q1972.625,460.751 1972.625,461.279 Q1972.625,461.777 1972.346,462.055 Q1972.068,462.333 1971.599,462.333 z M1959.177,455.756 Q1959.177,457.778 1960.481,459.067 Q1961.785,460.356 1963.792,460.356 Q1965.813,460.356 1967.117,459.015 Q1968.42,457.675 1968.42,455.61 Q1968.42,453.574 1967.124,452.255 Q1965.828,450.937 1963.792,450.937 Q1961.726,450.937 1960.452,452.27 Q1959.177,453.603 1959.177,455.756 z M1982.366,460.649 Q1984.622,460.649 1986.064,459.22 Q1987.507,457.792 1987.507,455.58 Q1987.507,453.368 1986.057,451.926 Q1984.607,450.483 1982.366,450.483 Q1980.125,450.483 1978.682,451.926 Q1977.239,453.368 1977.239,455.58 Q1977.239,457.807 1978.674,459.228 Q1980.11,460.649 1982.366,460.649 z M1990.056,455.58 Q1990.056,458.715 1987.917,460.707 Q1985.779,462.699 1982.366,462.699 Q1978.967,462.699 1976.829,460.707 Q1974.69,458.715 1974.69,455.58 Q1974.69,452.446 1976.829,450.461 Q1978.967,448.476 1982.366,448.476 Q1985.764,448.476 1987.91,450.468 Q1990.056,452.46 1990.056,455.58 z M2000.281,454.892 L1998.391,461.85 Q1998.245,462.407 1997.952,462.626 Q1997.659,462.846 1997.073,462.846 Q1996.545,462.846 1996.252,462.568 Q1995.959,462.289 1995.725,461.557 L1992.371,450.878 L1992.239,450.878 Q1991.624,450.878 1991.353,450.637 Q1991.082,450.395 1991.082,449.824 Q1991.082,449.325 1991.367,449.062 Q1991.653,448.798 1992.209,448.798 L1996.121,448.798 Q1996.912,448.798 1997.19,449.025 Q1997.468,449.252 1997.468,449.824 Q1997.468,450.175 1997.307,450.431 Q1997.146,450.688 1996.897,450.746 Q1996.648,450.82 1996.318,450.849 Q1995.989,450.878 1995.52,450.878 L1994.67,450.878 L1997.19,459.667 L1999.08,453.281 Q1999.241,452.724 1999.534,452.504 Q1999.827,452.284 2000.398,452.284 Q2000.925,452.284 2001.226,452.57 Q2001.526,452.856 2001.76,453.574 L2003.591,459.667 L2006.008,450.878 L2005.657,450.878 L2005.027,450.878 Q2004.016,450.878 2003.665,450.651 Q2003.313,450.424 2003.313,449.824 Q2003.313,449.238 2003.577,449.018 Q2003.84,448.798 2004.602,448.798 L2008.528,448.798 Q2008.982,448.798 2009.209,449.062 Q2009.436,449.325 2009.436,449.824 Q2009.436,450.38 2009.172,450.615 Q2008.909,450.849 2008.176,450.878 L2004.88,461.85 Q2004.69,462.407 2004.404,462.626 Q2004.119,462.846 2003.547,462.846 Q2003.02,462.846 2002.712,462.56 Q2002.405,462.275 2002.2,461.557 z M2015.5,459.931 Q2015.5,458.788 2016.299,458.056 Q2017.097,457.324 2018.372,457.324 Q2019.675,457.324 2020.466,458.041 Q2021.257,458.759 2021.257,459.931 Q2021.257,461.103 2020.459,461.821 Q2019.661,462.538 2018.372,462.538 Q2017.083,462.538 2016.292,461.821 Q2015.5,461.103 2015.5,459.931 z M2036.375,460.649 Q2038.63,460.649 2040.073,459.22 Q2041.516,457.792 2041.516,455.58 Q2041.516,453.368 2040.066,451.926 Q2038.616,450.483 2036.375,450.483 Q2034.133,450.483 2032.69,451.926 Q2031.248,453.368 2031.248,455.58 Q2031.248,457.807 2032.683,459.228 Q2034.119,460.649 2036.375,460.649 z M2044.065,455.58 Q2044.065,458.715 2041.926,460.707 Q2039.788,462.699 2036.375,462.699 Q2032.976,462.699 2030.837,460.707 Q2028.699,458.715 2028.699,455.58 Q2028.699,452.446 2030.837,450.461 Q2032.976,448.476 2036.375,448.476 Q2039.773,448.476 2041.919,450.468 Q2044.065,452.46 2044.065,455.58 z M2047.668,450.878 Q2046.702,450.878 2046.343,450.644 Q2045.984,450.409 2045.984,449.824 Q2045.984,449.311 2046.277,449.054 Q2046.57,448.798 2047.156,448.798 L2051.257,448.798 Q2052.092,448.798 2052.371,449.025 Q2052.649,449.252 2052.649,449.824 Q2052.649,450.409 2052.283,450.644 Q2051.917,450.878 2050.935,450.878 L2050.393,450.878 L2054.202,460.356 L2058.435,450.878 L2057.556,450.878 Q2056.428,450.878 2056.033,450.651 Q2055.637,450.424 2055.637,449.824 Q2055.637,449.252 2055.916,449.025 Q2056.194,448.798 2057.029,448.798 L2061.555,448.798 Q2062.141,448.798 2062.434,449.054 Q2062.727,449.311 2062.727,449.824 Q2062.727,450.409 2062.368,450.644 Q2062.009,450.878 2061.042,450.878 L2060.779,450.878 L2055.945,461.557 Q2055.579,462.363 2055.22,462.604 Q2054.861,462.846 2054.172,462.846 Q2053.542,462.846 2053.198,462.612 Q2052.854,462.377 2052.488,461.557 z M2067.429,456.21 Q2067.546,458.32 2068.857,459.47 Q2070.168,460.619 2072.439,460.619 Q2074.153,460.619 2076.174,459.704 Q2078.196,458.788 2078.621,458.788 Q2079.06,458.788 2079.353,459.067 Q2079.646,459.345 2079.646,459.755 Q2079.646,460.18 2079.338,460.532 Q2079.031,460.883 2078.357,461.22 Q2076.892,461.938 2075.332,462.319 Q2073.772,462.699 2072.234,462.699 Q2068.894,462.699 2066.887,460.773 Q2064.88,458.847 2064.88,455.668 Q2064.88,452.431 2067.004,450.424 Q2069.128,448.417 2072.542,448.417 Q2075.632,448.417 2077.668,450.292 Q2079.705,452.167 2079.705,454.833 Q2079.705,455.654 2079.36,455.932 Q2079.016,456.21 2077.493,456.21 L2077.273,456.21 z M2067.502,454.291 L2077.039,454.291 Q2076.819,452.548 2075.581,451.486 Q2074.343,450.424 2072.542,450.424 Q2070.593,450.424 2069.26,451.449 Q2067.927,452.475 2067.502,454.291 z M2087.512,459.931 Q2087.512,458.788 2088.311,458.056 Q2089.109,457.324 2090.383,457.324 Q2091.687,457.324 2092.478,458.041 Q2093.269,458.759 2093.269,459.931 Q2093.269,461.103 2092.471,461.821 Q2091.672,462.538 2090.383,462.538 Q2089.094,462.538 2088.303,461.821 Q2087.512,461.103 2087.512,459.931 z M2107.405,445.268 L2104.915,445.268 Q2103.494,445.268 2103.135,445.041 Q2102.776,444.814 2102.776,444.213 Q2102.776,443.686 2103.076,443.422 Q2103.376,443.158 2103.948,443.158 L2108.782,443.158 Q2109.177,443.158 2109.397,443.32 Q2109.617,443.481 2109.617,443.759 L2109.617,460.268 L2114.216,460.268 Q2114.773,460.268 2115.029,460.51 Q2115.286,460.751 2115.286,461.279 Q2115.286,461.879 2115.037,462.106 Q2114.788,462.333 2114.099,462.333 L2103.289,462.333 Q2102.717,462.333 2102.417,462.07 Q2102.117,461.806 2102.117,461.279 Q2102.117,460.766 2102.424,460.517 Q2102.732,460.268 2103.347,460.268 L2107.405,460.268 z M2129.641,455.859 Q2128.835,455.595 2128.081,455.47 Q2127.327,455.346 2126.58,455.346 Q2124.324,455.346 2123.02,456.108 Q2121.716,456.869 2121.716,458.158 Q2121.716,459.155 2122.529,459.799 Q2123.342,460.444 2124.602,460.444 Q2126.462,460.444 2128.052,459.47 Q2129.641,458.495 2129.641,457.441 z M2129.758,460.473 Q2128.557,461.557 2127.144,462.128 Q2125.73,462.699 2124.236,462.699 Q2122.053,462.699 2120.713,461.484 Q2119.373,460.268 2119.373,458.32 Q2119.373,456.005 2121.152,454.731 Q2122.932,453.456 2126.155,453.456 Q2127.004,453.456 2127.869,453.566 Q2128.733,453.676 2129.641,453.91 L2129.641,453.808 Q2129.641,452.123 2128.835,451.318 Q2128.03,450.512 2126.331,450.512 Q2125.188,450.512 2123.782,451.127 Q2122.375,451.742 2121.921,451.742 Q2121.497,451.742 2121.218,451.398 Q2120.94,451.054 2120.94,450.512 Q2120.94,449.648 2122.559,449.047 Q2124.177,448.447 2126.697,448.447 Q2129.275,448.447 2130.593,449.758 Q2131.912,451.069 2131.912,453.632 L2131.912,460.268 L2132.629,460.268 Q2133.669,460.268 2134.021,460.488 Q2134.373,460.707 2134.373,461.279 Q2134.373,461.806 2134.08,462.07 Q2133.787,462.333 2133.201,462.333 L2130.901,462.333 Q2130.491,462.333 2130.227,462.084 Q2129.963,461.835 2129.875,461.366 z M2143.293,466.083 L2143.923,466.083 Q2144.993,466.083 2145.374,466.31 Q2145.754,466.537 2145.754,467.138 Q2145.754,467.651 2145.454,467.914 Q2145.154,468.178 2144.583,468.178 L2137.83,468.178 Q2137.141,468.178 2136.87,467.944 Q2136.599,467.709 2136.599,467.138 Q2136.599,466.611 2136.885,466.347 Q2137.17,466.083 2137.742,466.083 L2140.92,466.083 L2143.293,461.41 L2137.917,450.878 Q2136.951,450.878 2136.592,450.644 Q2136.233,450.409 2136.233,449.824 Q2136.233,449.311 2136.526,449.054 Q2136.819,448.798 2137.405,448.798 L2141.492,448.798 Q2142.312,448.798 2142.59,449.025 Q2142.869,449.252 2142.869,449.824 Q2142.869,450.409 2142.502,450.644 Q2142.136,450.878 2141.155,450.878 L2140.613,450.878 L2144.583,458.949 L2148.625,450.878 L2148.054,450.878 Q2147.043,450.878 2146.663,450.644 Q2146.282,450.409 2146.282,449.824 Q2146.282,449.252 2146.56,449.025 Q2146.838,448.798 2147.673,448.798 L2151.292,448.798 Q2151.892,448.798 2152.178,449.054 Q2152.463,449.311 2152.463,449.824 Q2152.463,450.38 2152.141,450.615 Q2151.819,450.849 2150.999,450.878 z M2162.395,460.649 Q2164.651,460.649 2166.094,459.22 Q2167.537,457.792 2167.537,455.58 Q2167.537,453.368 2166.086,451.926 Q2164.636,450.483 2162.395,450.483 Q2160.154,450.483 2158.711,451.926 Q2157.268,453.368 2157.268,455.58 Q2157.268,457.807 2158.704,459.228 Q2160.139,460.649 2162.395,460.649 z M2170.085,455.58 Q2170.085,458.715 2167.947,460.707 Q2165.808,462.699 2162.395,462.699 Q2158.997,462.699 2156.858,460.707 Q2154.719,458.715 2154.719,455.58 Q2154.719,452.446 2156.858,450.461 Q2158.997,448.476 2162.395,448.476 Q2165.793,448.476 2167.939,450.468 Q2170.085,452.46 2170.085,455.58 z M2176.75,456.928 Q2176.75,458.774 2177.527,459.623 Q2178.303,460.473 2179.988,460.473 Q2181.584,460.473 2182.72,459.462 Q2183.855,458.451 2183.855,456.928 L2183.855,450.878 L2181.848,450.878 Q2181.277,450.878 2181.021,450.637 Q2180.764,450.395 2180.764,449.882 Q2180.764,449.325 2181.042,449.062 Q2181.321,448.798 2181.936,448.798 L2185.056,448.798 Q2185.613,448.798 2185.84,449.04 Q2186.067,449.282 2186.067,450.219 L2186.067,460.268 L2186.741,460.268 Q2187.458,460.268 2187.773,460.502 Q2188.088,460.737 2188.088,461.279 Q2188.088,461.806 2187.788,462.07 Q2187.488,462.333 2186.917,462.333 L2184.69,462.333 Q2184.294,462.333 2184.075,462.172 Q2183.855,462.011 2183.855,461.733 L2183.855,460.737 Q2182.449,461.821 2181.445,462.223 Q2180.442,462.626 2179.329,462.626 Q2176.912,462.626 2175.703,461.345 Q2174.495,460.063 2174.495,457.47 L2174.495,450.878 L2174.187,450.878 Q2173.191,450.878 2172.825,450.644 Q2172.458,450.409 2172.458,449.824 Q2172.458,449.311 2172.744,449.054 Q2173.03,448.798 2173.63,448.798 L2175.842,448.798 Q2176.355,448.798 2176.553,449.003 Q2176.75,449.208 2176.75,449.911 z M2202.4,449.618 Q2203.118,449.618 2203.447,449.867 Q2203.777,450.116 2203.777,450.658 Q2203.777,451.171 2203.469,451.428 Q2203.162,451.684 2202.546,451.684 L2196.614,451.684 L2196.614,456.576 Q2196.614,458.979 2197.236,459.741 Q2197.859,460.502 2199.368,460.502 Q2200.701,460.502 2202.561,459.726 Q2204.421,458.949 2204.861,458.949 Q2205.271,458.949 2205.557,459.242 Q2205.842,459.535 2205.842,459.96 Q2205.842,460.444 2205.483,460.803 Q2205.125,461.161 2204.26,461.498 Q2202.825,462.07 2201.675,462.333 Q2200.525,462.597 2199.514,462.597 Q2197.8,462.597 2196.636,462.048 Q2195.471,461.498 2194.9,460.414 Q2194.607,459.902 2194.482,459.199 Q2194.358,458.495 2194.358,457.031 L2194.358,456.576 L2194.358,451.684 L2191.868,451.684 Q2191.252,451.684 2190.974,451.442 Q2190.696,451.2 2190.696,450.658 Q2190.696,450.058 2191.077,449.838 Q2191.458,449.618 2192.703,449.618 L2194.358,449.618 L2194.358,446.616 L2194.358,445.839 Q2194.358,445.209 2194.629,444.909 Q2194.9,444.609 2195.471,444.609 Q2196.116,444.609 2196.365,444.975 Q2196.614,445.341 2196.614,446.645 L2196.614,449.618 z M2213.533,459.931 Q2213.533,458.788 2214.331,458.056 Q2215.129,457.324 2216.404,457.324 Q2217.708,457.324 2218.499,458.041 Q2219.29,458.759 2219.29,459.931 Q2219.29,461.103 2218.491,461.821 Q2217.693,462.538 2216.404,462.538 Q2215.115,462.538 2214.324,461.821 Q2213.533,461.103 2213.533,459.931 z M2232.913,451.742 L2234.465,453.574 L2236.15,451.742 Q2235.667,451.742 2235.447,451.398 Q2235.227,451.054 2235.227,450.307 Q2235.227,449.574 2235.601,449.186 Q2235.974,448.798 2236.692,448.798 L2239.812,448.798 Q2240.793,448.798 2241.218,449.179 Q2241.643,449.56 2241.643,450.424 Q2241.643,451.23 2241.226,451.618 Q2240.808,452.006 2239.929,452.006 L2239.358,452.006 L2236.296,455.346 L2239.958,459.096 L2240.295,459.096 Q2241.145,459.096 2241.577,459.499 Q2242.009,459.902 2242.009,460.707 Q2242.009,461.572 2241.562,461.952 Q2241.116,462.333 2240.12,462.333 L2236.575,462.333 Q2235.857,462.333 2235.483,461.945 Q2235.11,461.557 2235.11,460.839 Q2235.11,460.077 2235.337,459.733 Q2235.564,459.389 2236.062,459.389 L2236.179,459.389 L2234.319,457.324 L2232.517,459.389 L2232.576,459.389 Q2233.103,459.389 2233.337,459.719 Q2233.572,460.048 2233.572,460.737 Q2233.572,461.557 2233.213,461.945 Q2232.854,462.333 2232.107,462.333 L2228.987,462.333 Q2227.991,462.333 2227.573,461.952 Q2227.156,461.572 2227.156,460.707 Q2227.156,459.902 2227.559,459.499 Q2227.961,459.096 2228.767,459.096 L2229.045,459.096 L2232.517,455.58 L2229.163,452.006 L2228.708,452.006 Q2227.844,452.006 2227.405,451.611 Q2226.965,451.215 2226.965,450.424 Q2226.965,449.56 2227.405,449.179 Q2227.844,448.798 2228.826,448.798 L2232.371,448.798 Q2233.118,448.798 2233.477,449.194 Q2233.835,449.589 2233.835,450.395 Q2233.835,451.069 2233.608,451.406 Q2233.381,451.742 2232.913,451.742 z" fill="#268F6B"/>
    <path d="M1915.586,612.892 L1913.697,619.85 Q1913.55,620.406 1913.257,620.626 Q1912.964,620.846 1912.378,620.846 Q1911.851,620.846 1911.558,620.568 Q1911.265,620.289 1911.031,619.557 L1907.676,608.878 L1907.544,608.878 Q1906.929,608.878 1906.658,608.636 Q1906.387,608.395 1906.387,607.823 Q1906.387,607.325 1906.673,607.062 Q1906.958,606.798 1907.515,606.798 L1911.426,606.798 Q1912.217,606.798 1912.495,607.025 Q1912.774,607.252 1912.774,607.823 Q1912.774,608.175 1912.613,608.431 Q1912.451,608.688 1912.202,608.746 Q1911.953,608.82 1911.624,608.849 Q1911.294,608.878 1910.825,608.878 L1909.976,608.878 L1912.495,617.667 L1914.385,611.281 Q1914.546,610.724 1914.839,610.504 Q1915.132,610.284 1915.703,610.284 Q1916.231,610.284 1916.531,610.57 Q1916.831,610.856 1917.066,611.573 L1918.897,617.667 L1921.314,608.878 L1920.962,608.878 L1920.332,608.878 Q1919.322,608.878 1918.97,608.651 Q1918.618,608.424 1918.618,607.823 Q1918.618,607.238 1918.882,607.018 Q1919.146,606.798 1919.907,606.798 L1923.833,606.798 Q1924.287,606.798 1924.514,607.062 Q1924.741,607.325 1924.741,607.823 Q1924.741,608.38 1924.478,608.615 Q1924.214,608.849 1923.482,608.878 L1920.186,619.85 Q1919.995,620.406 1919.71,620.626 Q1919.424,620.846 1918.853,620.846 Q1918.325,620.846 1918.018,620.56 Q1917.71,620.275 1917.505,619.557 z M1932.329,602.579 Q1932.329,600.997 1932.615,600.587 Q1932.901,600.177 1933.838,600.177 Q1934.746,600.177 1935.039,600.521 Q1935.332,600.865 1935.332,602.155 Q1935.332,603.414 1935.061,603.715 Q1934.79,604.015 1933.838,604.015 Q1932.901,604.015 1932.615,603.737 Q1932.329,603.458 1932.329,602.579 z M1935.039,618.268 L1939.741,618.268 Q1940.313,618.268 1940.584,618.51 Q1940.855,618.751 1940.855,619.279 Q1940.855,619.879 1940.598,620.106 Q1940.342,620.333 1939.654,620.333 L1928.286,620.333 Q1927.7,620.333 1927.407,620.07 Q1927.115,619.806 1927.115,619.279 Q1927.115,618.766 1927.422,618.517 Q1927.73,618.268 1928.345,618.268 L1932.813,618.268 L1932.813,608.878 L1929.956,608.878 Q1929.356,608.878 1929.041,608.607 Q1928.726,608.336 1928.726,607.823 Q1928.726,607.311 1929.019,607.054 Q1929.312,606.798 1929.898,606.798 L1934.19,606.798 Q1934.585,606.798 1934.812,606.959 Q1935.039,607.12 1935.039,607.399 z M1946.231,618.268 L1946.231,608.878 L1945.952,608.878 Q1944.956,608.878 1944.583,608.644 Q1944.209,608.409 1944.209,607.823 Q1944.209,607.281 1944.517,607.04 Q1944.824,606.798 1945.513,606.798 L1946.201,606.798 L1947.608,606.798 Q1948.003,606.798 1948.223,606.959 Q1948.443,607.12 1948.443,607.399 L1948.443,608.395 Q1949.512,607.399 1950.559,606.923 Q1951.607,606.447 1952.735,606.447 Q1954.947,606.447 1956.214,607.823 Q1957.481,609.2 1957.481,611.632 L1957.481,618.268 L1958.169,618.268 Q1958.902,618.268 1959.224,618.51 Q1959.546,618.751 1959.546,619.279 Q1959.546,619.85 1959.202,620.092 Q1958.858,620.333 1957.979,620.333 L1954.741,620.333 Q1953.804,620.333 1953.54,620.114 Q1953.277,619.894 1953.277,619.279 Q1953.277,618.707 1953.584,618.488 Q1953.892,618.268 1954.741,618.268 L1955.254,618.268 L1955.254,612.174 Q1955.254,610.46 1954.478,609.559 Q1953.701,608.658 1952.222,608.658 Q1950.728,608.658 1949.585,609.669 Q1948.443,610.68 1948.443,612.174 L1948.443,618.268 L1948.955,618.268 Q1949.834,618.268 1950.142,618.488 Q1950.449,618.707 1950.449,619.279 Q1950.449,619.894 1950.186,620.114 Q1949.922,620.333 1948.897,620.333 L1946.231,620.333 L1945.44,620.333 Q1944.839,620.333 1944.539,620.077 Q1944.239,619.821 1944.239,619.279 Q1944.239,618.693 1944.583,618.48 Q1944.927,618.268 1945.923,618.268 z M1974.092,620.333 Q1973.784,620.333 1973.66,620.179 Q1973.535,620.026 1973.535,619.586 L1973.535,618.385 Q1972.656,619.484 1971.338,620.092 Q1970.02,620.699 1968.482,620.699 Q1965.713,620.699 1963.845,618.729 Q1961.978,616.759 1961.978,613.829 Q1961.978,610.797 1963.97,608.783 Q1965.962,606.769 1968.936,606.769 Q1970.445,606.769 1971.646,607.303 Q1972.847,607.838 1973.711,608.878 L1973.711,603.268 L1972.935,603.268 Q1971.66,603.268 1971.287,603.041 Q1970.913,602.814 1970.913,602.213 Q1970.913,601.686 1971.214,601.422 Q1971.514,601.158 1972.085,601.158 L1975.088,601.158 Q1975.528,601.158 1975.725,601.305 Q1975.923,601.451 1975.923,601.759 L1975.923,618.268 L1976.582,618.268 Q1977.3,618.268 1977.622,618.51 Q1977.945,618.751 1977.945,619.279 Q1977.945,619.777 1977.666,620.055 Q1977.388,620.333 1976.919,620.333 z M1964.497,613.756 Q1964.497,615.778 1965.801,617.067 Q1967.105,618.356 1969.112,618.356 Q1971.133,618.356 1972.437,617.015 Q1973.74,615.675 1973.74,613.61 Q1973.74,611.573 1972.444,610.255 Q1971.148,608.937 1969.112,608.937 Q1967.046,608.937 1965.772,610.27 Q1964.497,611.603 1964.497,613.756 z M1987.686,618.649 Q1989.942,618.649 1991.385,617.22 Q1992.827,615.792 1992.827,613.58 Q1992.827,611.368 1991.377,609.926 Q1989.927,608.483 1987.686,608.483 Q1985.445,608.483 1984.002,609.926 Q1982.559,611.368 1982.559,613.58 Q1982.559,615.807 1983.994,617.228 Q1985.43,618.649 1987.686,618.649 z M1995.376,613.58 Q1995.376,616.715 1993.238,618.707 Q1991.099,620.699 1987.686,620.699 Q1984.287,620.699 1982.149,618.707 Q1980.01,616.715 1980.01,613.58 Q1980.01,610.446 1982.149,608.461 Q1984.287,606.476 1987.686,606.476 Q1991.084,606.476 1993.23,608.468 Q1995.376,610.46 1995.376,613.58 z M2005.601,612.892 L2003.711,619.85 Q2003.565,620.406 2003.272,620.626 Q2002.979,620.846 2002.393,620.846 Q2001.865,620.846 2001.573,620.568 Q2001.28,620.289 2001.045,619.557 L1997.691,608.878 L1997.559,608.878 Q1996.944,608.878 1996.673,608.636 Q1996.402,608.395 1996.402,607.823 Q1996.402,607.325 1996.687,607.062 Q1996.973,606.798 1997.53,606.798 L2001.441,606.798 Q2002.232,606.798 2002.51,607.025 Q2002.788,607.252 2002.788,607.823 Q2002.788,608.175 2002.627,608.431 Q2002.466,608.688 2002.217,608.746 Q2001.968,608.82 2001.638,608.849 Q2001.309,608.878 2000.84,608.878 L1999.99,608.878 L2002.51,617.667 L2004.4,611.281 Q2004.561,610.724 2004.854,610.504 Q2005.147,610.284 2005.718,610.284 Q2006.245,610.284 2006.546,610.57 Q2006.846,610.856 2007.08,611.573 L2008.911,617.667 L2011.328,608.878 L2010.977,608.878 L2010.347,608.878 Q2009.336,608.878 2008.985,608.651 Q2008.633,608.424 2008.633,607.823 Q2008.633,607.238 2008.897,607.018 Q2009.16,606.798 2009.922,606.798 L2013.848,606.798 Q2014.302,606.798 2014.529,607.062 Q2014.756,607.325 2014.756,607.823 Q2014.756,608.38 2014.492,608.615 Q2014.229,608.849 2013.496,608.878 L2010.2,619.85 Q2010.01,620.406 2009.724,620.626 Q2009.439,620.846 2008.867,620.846 Q2008.34,620.846 2008.032,620.56 Q2007.725,620.275 2007.52,619.557 z M2020.821,617.931 Q2020.821,616.788 2021.619,616.056 Q2022.417,615.323 2023.692,615.323 Q2024.995,615.323 2025.786,616.041 Q2026.577,616.759 2026.577,617.931 Q2026.577,619.103 2025.779,619.821 Q2024.981,620.538 2023.692,620.538 Q2022.403,620.538 2021.612,619.821 Q2020.821,619.103 2020.821,617.931 z M2041.695,618.649 Q2043.95,618.649 2045.393,617.22 Q2046.836,615.792 2046.836,613.58 Q2046.836,611.368 2045.386,609.926 Q2043.936,608.483 2041.695,608.483 Q2039.453,608.483 2038.01,609.926 Q2036.568,611.368 2036.568,613.58 Q2036.568,615.807 2038.003,617.228 Q2039.439,618.649 2041.695,618.649 z M2049.385,613.58 Q2049.385,616.715 2047.246,618.707 Q2045.108,620.699 2041.695,620.699 Q2038.296,620.699 2036.157,618.707 Q2034.019,616.715 2034.019,613.58 Q2034.019,610.446 2036.157,608.461 Q2038.296,606.476 2041.695,606.476 Q2045.093,606.476 2047.239,608.468 Q2049.385,610.46 2049.385,613.58 z M2052.989,608.878 Q2052.022,608.878 2051.663,608.644 Q2051.304,608.409 2051.304,607.823 Q2051.304,607.311 2051.597,607.054 Q2051.89,606.798 2052.476,606.798 L2056.577,606.798 Q2057.412,606.798 2057.691,607.025 Q2057.969,607.252 2057.969,607.823 Q2057.969,608.409 2057.603,608.644 Q2057.237,608.878 2056.255,608.878 L2055.713,608.878 L2059.522,618.356 L2063.755,608.878 L2062.876,608.878 Q2061.748,608.878 2061.353,608.651 Q2060.957,608.424 2060.957,607.823 Q2060.957,607.252 2061.236,607.025 Q2061.514,606.798 2062.349,606.798 L2066.875,606.798 Q2067.461,606.798 2067.754,607.054 Q2068.047,607.311 2068.047,607.823 Q2068.047,608.409 2067.688,608.644 Q2067.329,608.878 2066.363,608.878 L2066.099,608.878 L2061.265,619.557 Q2060.899,620.363 2060.54,620.604 Q2060.181,620.846 2059.492,620.846 Q2058.863,620.846 2058.518,620.612 Q2058.174,620.377 2057.808,619.557 z M2072.749,614.21 Q2072.866,616.32 2074.177,617.469 Q2075.489,618.619 2077.759,618.619 Q2079.473,618.619 2081.494,617.704 Q2083.516,616.788 2083.941,616.788 Q2084.38,616.788 2084.673,617.067 Q2084.966,617.345 2084.966,617.755 Q2084.966,618.18 2084.658,618.531 Q2084.351,618.883 2083.677,619.22 Q2082.212,619.938 2080.652,620.319 Q2079.092,620.699 2077.554,620.699 Q2074.214,620.699 2072.207,618.773 Q2070.2,616.847 2070.2,613.668 Q2070.2,610.431 2072.324,608.424 Q2074.448,606.417 2077.862,606.417 Q2080.952,606.417 2082.989,608.292 Q2085.025,610.167 2085.025,612.833 Q2085.025,613.654 2084.68,613.932 Q2084.336,614.21 2082.813,614.21 L2082.593,614.21 z M2072.823,612.291 L2082.359,612.291 Q2082.139,610.548 2080.901,609.486 Q2079.663,608.424 2077.862,608.424 Q2075.913,608.424 2074.58,609.449 Q2073.247,610.475 2072.823,612.291 z M2092.832,617.931 Q2092.832,616.788 2093.631,616.056 Q2094.429,615.323 2095.703,615.323 Q2097.007,615.323 2097.798,616.041 Q2098.589,616.759 2098.589,617.931 Q2098.589,619.103 2097.791,619.821 Q2096.992,620.538 2095.703,620.538 Q2094.414,620.538 2093.623,619.821 Q2092.832,619.103 2092.832,617.931 z M2112.725,603.268 L2110.235,603.268 Q2108.814,603.268 2108.455,603.041 Q2108.096,602.814 2108.096,602.213 Q2108.096,601.686 2108.396,601.422 Q2108.697,601.158 2109.268,601.158 L2114.102,601.158 Q2114.497,601.158 2114.717,601.32 Q2114.937,601.481 2114.937,601.759 L2114.937,618.268 L2119.536,618.268 Q2120.093,618.268 2120.349,618.51 Q2120.606,618.751 2120.606,619.279 Q2120.606,619.879 2120.357,620.106 Q2120.108,620.333 2119.419,620.333 L2108.609,620.333 Q2108.037,620.333 2107.737,620.07 Q2107.437,619.806 2107.437,619.279 Q2107.437,618.766 2107.744,618.517 Q2108.052,618.268 2108.667,618.268 L2112.725,618.268 z M2134.961,613.859 Q2134.156,613.595 2133.401,613.47 Q2132.647,613.346 2131.9,613.346 Q2129.644,613.346 2128.34,614.108 Q2127.036,614.869 2127.036,616.158 Q2127.036,617.155 2127.849,617.799 Q2128.662,618.444 2129.922,618.444 Q2131.782,618.444 2133.372,617.469 Q2134.961,616.495 2134.961,615.441 z M2135.078,618.473 Q2133.877,619.557 2132.464,620.128 Q2131.05,620.699 2129.556,620.699 Q2127.373,620.699 2126.033,619.484 Q2124.693,618.268 2124.693,616.32 Q2124.693,614.005 2126.472,612.731 Q2128.252,611.456 2131.475,611.456 Q2132.324,611.456 2133.189,611.566 Q2134.053,611.676 2134.961,611.91 L2134.961,611.808 Q2134.961,610.123 2134.156,609.318 Q2133.35,608.512 2131.651,608.512 Q2130.508,608.512 2129.102,609.127 Q2127.696,609.742 2127.241,609.742 Q2126.817,609.742 2126.538,609.398 Q2126.26,609.054 2126.26,608.512 Q2126.26,607.648 2127.879,607.047 Q2129.497,606.447 2132.017,606.447 Q2134.595,606.447 2135.913,607.758 Q2137.232,609.069 2137.232,611.632 L2137.232,618.268 L2137.949,618.268 Q2138.99,618.268 2139.341,618.488 Q2139.693,618.707 2139.693,619.279 Q2139.693,619.806 2139.4,620.07 Q2139.107,620.333 2138.521,620.333 L2136.221,620.333 Q2135.811,620.333 2135.547,620.084 Q2135.283,619.835 2135.196,619.366 z M2148.614,624.083 L2149.243,624.083 Q2150.313,624.083 2150.694,624.31 Q2151.074,624.537 2151.074,625.138 Q2151.074,625.651 2150.774,625.914 Q2150.474,626.178 2149.903,626.178 L2143.15,626.178 Q2142.461,626.178 2142.19,625.944 Q2141.919,625.709 2141.919,625.138 Q2141.919,624.611 2142.205,624.347 Q2142.49,624.083 2143.062,624.083 L2146.24,624.083 L2148.614,619.41 L2143.238,608.878 Q2142.271,608.878 2141.912,608.644 Q2141.553,608.409 2141.553,607.823 Q2141.553,607.311 2141.846,607.054 Q2142.139,606.798 2142.725,606.798 L2146.812,606.798 Q2147.632,606.798 2147.91,607.025 Q2148.189,607.252 2148.189,607.823 Q2148.189,608.409 2147.823,608.644 Q2147.456,608.878 2146.475,608.878 L2145.933,608.878 L2149.903,616.949 L2153.946,608.878 L2153.374,608.878 Q2152.364,608.878 2151.983,608.644 Q2151.602,608.409 2151.602,607.823 Q2151.602,607.252 2151.88,607.025 Q2152.158,606.798 2152.993,606.798 L2156.612,606.798 Q2157.212,606.798 2157.498,607.054 Q2157.783,607.311 2157.783,607.823 Q2157.783,608.38 2157.461,608.615 Q2157.139,608.849 2156.319,608.878 z M2167.715,618.649 Q2169.971,618.649 2171.414,617.22 Q2172.857,615.792 2172.857,613.58 Q2172.857,611.368 2171.406,609.926 Q2169.956,608.483 2167.715,608.483 Q2165.474,608.483 2164.031,609.926 Q2162.588,611.368 2162.588,613.58 Q2162.588,615.807 2164.024,617.228 Q2165.459,618.649 2167.715,618.649 z M2175.406,613.58 Q2175.406,616.715 2173.267,618.707 Q2171.128,620.699 2167.715,620.699 Q2164.317,620.699 2162.178,618.707 Q2160.039,616.715 2160.039,613.58 Q2160.039,610.446 2162.178,608.461 Q2164.317,606.476 2167.715,606.476 Q2171.114,606.476 2173.26,608.468 Q2175.406,610.46 2175.406,613.58 z M2182.071,614.928 Q2182.071,616.774 2182.847,617.623 Q2183.623,618.473 2185.308,618.473 Q2186.905,618.473 2188.04,617.462 Q2189.175,616.451 2189.175,614.928 L2189.175,608.878 L2187.168,608.878 Q2186.597,608.878 2186.341,608.636 Q2186.084,608.395 2186.084,607.882 Q2186.084,607.325 2186.363,607.062 Q2186.641,606.798 2187.256,606.798 L2190.376,606.798 Q2190.933,606.798 2191.16,607.04 Q2191.387,607.281 2191.387,608.219 L2191.387,618.268 L2192.061,618.268 Q2192.779,618.268 2193.094,618.502 Q2193.408,618.737 2193.408,619.279 Q2193.408,619.806 2193.108,620.07 Q2192.808,620.333 2192.237,620.333 L2190.01,620.333 Q2189.615,620.333 2189.395,620.172 Q2189.175,620.011 2189.175,619.733 L2189.175,618.737 Q2187.769,619.821 2186.765,620.223 Q2185.762,620.626 2184.649,620.626 Q2182.232,620.626 2181.023,619.344 Q2179.815,618.063 2179.815,615.47 L2179.815,608.878 L2179.507,608.878 Q2178.511,608.878 2178.145,608.644 Q2177.779,608.409 2177.779,607.823 Q2177.779,607.311 2178.064,607.054 Q2178.35,606.798 2178.95,606.798 L2181.162,606.798 Q2181.675,606.798 2181.873,607.003 Q2182.071,607.208 2182.071,607.911 z M2207.72,607.618 Q2208.438,607.618 2208.767,607.867 Q2209.097,608.116 2209.097,608.658 Q2209.097,609.171 2208.789,609.427 Q2208.482,609.684 2207.866,609.684 L2201.934,609.684 L2201.934,614.576 Q2201.934,616.979 2202.556,617.74 Q2203.179,618.502 2204.688,618.502 Q2206.021,618.502 2207.881,617.726 Q2209.741,616.949 2210.181,616.949 Q2210.591,616.949 2210.877,617.242 Q2211.162,617.535 2211.162,617.96 Q2211.162,618.444 2210.803,618.802 Q2210.445,619.161 2209.58,619.498 Q2208.145,620.07 2206.995,620.333 Q2205.845,620.597 2204.834,620.597 Q2203.12,620.597 2201.956,620.048 Q2200.791,619.498 2200.22,618.414 Q2199.927,617.902 2199.802,617.198 Q2199.678,616.495 2199.678,615.031 L2199.678,614.576 L2199.678,609.684 L2197.188,609.684 Q2196.573,609.684 2196.294,609.442 Q2196.016,609.2 2196.016,608.658 Q2196.016,608.058 2196.397,607.838 Q2196.778,607.618 2198.023,607.618 L2199.678,607.618 L2199.678,604.615 L2199.678,603.839 Q2199.678,603.209 2199.949,602.909 Q2200.22,602.609 2200.791,602.609 Q2201.436,602.609 2201.685,602.975 Q2201.934,603.341 2201.934,604.645 L2201.934,607.618 z M2218.853,617.931 Q2218.853,616.788 2219.651,616.056 Q2220.449,615.323 2221.724,615.323 Q2223.028,615.323 2223.819,616.041 Q2224.61,616.759 2224.61,617.931 Q2224.61,619.103 2223.811,619.821 Q2223.013,620.538 2221.724,620.538 Q2220.435,620.538 2219.644,619.821 Q2218.853,619.103 2218.853,617.931 z M2237.149,610.006 L2239.785,616.246 L2242.554,610.006 L2242.32,610.006 Q2241.529,610.006 2241.111,609.596 Q2240.694,609.186 2240.694,608.395 Q2240.694,607.531 2241.111,607.164 Q2241.529,606.798 2242.554,606.798 L2245.996,606.798 Q2247.022,606.798 2247.439,607.172 Q2247.857,607.545 2247.857,608.395 Q2247.857,609.186 2247.447,609.596 Q2247.036,610.006 2246.245,610.006 L2245.996,610.006 L2239.976,622.941 L2240.635,622.941 Q2241.631,622.941 2242.063,623.322 Q2242.495,623.702 2242.495,624.567 Q2242.495,625.416 2242.063,625.797 Q2241.631,626.178 2240.635,626.178 L2234.219,626.178 Q2233.208,626.178 2232.783,625.804 Q2232.359,625.431 2232.359,624.567 Q2232.359,623.702 2232.783,623.322 Q2233.208,622.941 2234.219,622.941 L2236.49,622.941 L2237.866,619.996 L2233.428,610.006 L2233.194,610.006 Q2232.403,610.006 2231.985,609.596 Q2231.568,609.186 2231.568,608.395 Q2231.568,607.531 2231.992,607.164 Q2232.417,606.798 2233.428,606.798 L2237.149,606.798 Q2238.159,606.798 2238.584,607.172 Q2239.009,607.545 2239.009,608.395 Q2239.009,609.186 2238.592,609.596 Q2238.174,610.006 2237.398,610.006 z" fill="#7570B3"/>
    <text transform="matrix(1, 0, 0, 1, 1482.707, 579)">
      <tspan x="-218.027" y="3.333" font-family="Courier" font-size="30" fill="#000000">window.ove.layout.</tspan>
      <tspan x="106.026" y="3.333" font-family="Courier-Bold" font-size="30" fill="#000000">x = 0</tspan>
    </text>
    <path d="M1273.586,613.225 L1271.697,620.183 Q1271.55,620.74 1271.257,620.959 Q1270.964,621.179 1270.378,621.179 Q1269.851,621.179 1269.558,620.901 Q1269.265,620.623 1269.031,619.89 L1265.676,609.211 L1265.544,609.211 Q1264.929,609.211 1264.658,608.97 Q1264.387,608.728 1264.387,608.157 Q1264.387,607.659 1264.673,607.395 Q1264.958,607.131 1265.515,607.131 L1269.426,607.131 Q1270.217,607.131 1270.495,607.358 Q1270.774,607.585 1270.774,608.157 Q1270.774,608.508 1270.613,608.765 Q1270.452,609.021 1270.203,609.08 Q1269.953,609.153 1269.624,609.182 Q1269.294,609.211 1268.826,609.211 L1267.976,609.211 L1270.495,618 L1272.385,611.614 Q1272.546,611.057 1272.839,610.837 Q1273.132,610.618 1273.703,610.618 Q1274.231,610.618 1274.531,610.903 Q1274.831,611.189 1275.066,611.907 L1276.897,618 L1279.314,609.211 L1278.962,609.211 L1278.332,609.211 Q1277.322,609.211 1276.97,608.984 Q1276.619,608.757 1276.619,608.157 Q1276.619,607.571 1276.882,607.351 Q1277.146,607.131 1277.908,607.131 L1281.833,607.131 Q1282.287,607.131 1282.515,607.395 Q1282.742,607.659 1282.742,608.157 Q1282.742,608.713 1282.478,608.948 Q1282.214,609.182 1281.482,609.211 L1278.186,620.183 Q1277.995,620.74 1277.71,620.959 Q1277.424,621.179 1276.853,621.179 Q1276.326,621.179 1276.018,620.894 Q1275.71,620.608 1275.505,619.89 z M1290.329,602.913 Q1290.329,601.331 1290.615,600.92 Q1290.901,600.51 1291.838,600.51 Q1292.746,600.51 1293.039,600.854 Q1293.332,601.199 1293.332,602.488 Q1293.332,603.748 1293.061,604.048 Q1292.79,604.348 1291.838,604.348 Q1290.901,604.348 1290.615,604.07 Q1290.329,603.792 1290.329,602.913 z M1293.039,618.601 L1297.742,618.601 Q1298.313,618.601 1298.584,618.843 Q1298.855,619.084 1298.855,619.612 Q1298.855,620.212 1298.599,620.439 Q1298.342,620.667 1297.654,620.667 L1286.286,620.667 Q1285.701,620.667 1285.408,620.403 Q1285.115,620.139 1285.115,619.612 Q1285.115,619.099 1285.422,618.85 Q1285.73,618.601 1286.345,618.601 L1290.813,618.601 L1290.813,609.211 L1287.956,609.211 Q1287.356,609.211 1287.041,608.94 Q1286.726,608.669 1286.726,608.157 Q1286.726,607.644 1287.019,607.388 Q1287.312,607.131 1287.898,607.131 L1292.19,607.131 Q1292.585,607.131 1292.812,607.292 Q1293.039,607.454 1293.039,607.732 z M1304.231,618.601 L1304.231,609.211 L1303.953,609.211 Q1302.956,609.211 1302.583,608.977 Q1302.209,608.743 1302.209,608.157 Q1302.209,607.615 1302.517,607.373 Q1302.825,607.131 1303.513,607.131 L1304.202,607.131 L1305.608,607.131 Q1306.003,607.131 1306.223,607.292 Q1306.443,607.454 1306.443,607.732 L1306.443,608.728 Q1307.512,607.732 1308.559,607.256 Q1309.607,606.78 1310.735,606.78 Q1312.947,606.78 1314.214,608.157 Q1315.481,609.534 1315.481,611.965 L1315.481,618.601 L1316.169,618.601 Q1316.902,618.601 1317.224,618.843 Q1317.546,619.084 1317.546,619.612 Q1317.546,620.183 1317.202,620.425 Q1316.858,620.667 1315.979,620.667 L1312.742,620.667 Q1311.804,620.667 1311.54,620.447 Q1311.277,620.227 1311.277,619.612 Q1311.277,619.041 1311.584,618.821 Q1311.892,618.601 1312.742,618.601 L1313.254,618.601 L1313.254,612.507 Q1313.254,610.793 1312.478,609.893 Q1311.702,608.992 1310.222,608.992 Q1308.728,608.992 1307.585,610.002 Q1306.443,611.013 1306.443,612.507 L1306.443,618.601 L1306.955,618.601 Q1307.834,618.601 1308.142,618.821 Q1308.45,619.041 1308.45,619.612 Q1308.45,620.227 1308.186,620.447 Q1307.922,620.667 1306.897,620.667 L1304.231,620.667 L1303.44,620.667 Q1302.839,620.667 1302.539,620.41 Q1302.239,620.154 1302.239,619.612 Q1302.239,619.026 1302.583,618.813 Q1302.927,618.601 1303.923,618.601 z M1332.092,620.667 Q1331.785,620.667 1331.66,620.513 Q1331.536,620.359 1331.536,619.919 L1331.536,618.718 Q1330.657,619.817 1329.338,620.425 Q1328.02,621.033 1326.482,621.033 Q1323.713,621.033 1321.846,619.062 Q1319.978,617.092 1319.978,614.163 Q1319.978,611.13 1321.97,609.116 Q1323.962,607.102 1326.936,607.102 Q1328.445,607.102 1329.646,607.637 Q1330.847,608.171 1331.711,609.211 L1331.711,603.601 L1330.935,603.601 Q1329.661,603.601 1329.287,603.374 Q1328.913,603.147 1328.913,602.546 Q1328.913,602.019 1329.214,601.755 Q1329.514,601.492 1330.085,601.492 L1333.088,601.492 Q1333.528,601.492 1333.725,601.638 Q1333.923,601.785 1333.923,602.092 L1333.923,618.601 L1334.582,618.601 Q1335.3,618.601 1335.622,618.843 Q1335.945,619.084 1335.945,619.612 Q1335.945,620.11 1335.666,620.388 Q1335.388,620.667 1334.919,620.667 z M1322.497,614.089 Q1322.497,616.111 1323.801,617.4 Q1325.105,618.689 1327.112,618.689 Q1329.133,618.689 1330.437,617.349 Q1331.741,616.008 1331.741,613.943 Q1331.741,611.907 1330.444,610.588 Q1329.148,609.27 1327.112,609.27 Q1325.046,609.27 1323.772,610.603 Q1322.497,611.936 1322.497,614.089 z M1345.686,618.982 Q1347.942,618.982 1349.385,617.554 Q1350.828,616.125 1350.828,613.914 Q1350.828,611.702 1349.377,610.259 Q1347.927,608.816 1345.686,608.816 Q1343.445,608.816 1342.002,610.259 Q1340.559,611.702 1340.559,613.914 Q1340.559,616.14 1341.995,617.561 Q1343.43,618.982 1345.686,618.982 z M1353.376,613.914 Q1353.376,617.048 1351.238,619.041 Q1349.099,621.033 1345.686,621.033 Q1342.287,621.033 1340.149,619.041 Q1338.01,617.048 1338.01,613.914 Q1338.01,610.779 1340.149,608.794 Q1342.287,606.809 1345.686,606.809 Q1349.084,606.809 1351.23,608.801 Q1353.376,610.793 1353.376,613.914 z M1363.601,613.225 L1361.711,620.183 Q1361.565,620.74 1361.272,620.959 Q1360.979,621.179 1360.393,621.179 Q1359.866,621.179 1359.573,620.901 Q1359.28,620.623 1359.045,619.89 L1355.691,609.211 L1355.559,609.211 Q1354.944,609.211 1354.673,608.97 Q1354.402,608.728 1354.402,608.157 Q1354.402,607.659 1354.687,607.395 Q1354.973,607.131 1355.53,607.131 L1359.441,607.131 Q1360.232,607.131 1360.51,607.358 Q1360.788,607.585 1360.788,608.157 Q1360.788,608.508 1360.627,608.765 Q1360.466,609.021 1360.217,609.08 Q1359.968,609.153 1359.639,609.182 Q1359.309,609.211 1358.84,609.211 L1357.991,609.211 L1360.51,618 L1362.4,611.614 Q1362.561,611.057 1362.854,610.837 Q1363.147,610.618 1363.718,610.618 Q1364.245,610.618 1364.546,610.903 Q1364.846,611.189 1365.08,611.907 L1366.911,618 L1369.328,609.211 L1368.977,609.211 L1368.347,609.211 Q1367.336,609.211 1366.985,608.984 Q1366.633,608.757 1366.633,608.157 Q1366.633,607.571 1366.897,607.351 Q1367.161,607.131 1367.922,607.131 L1371.848,607.131 Q1372.302,607.131 1372.529,607.395 Q1372.756,607.659 1372.756,608.157 Q1372.756,608.713 1372.493,608.948 Q1372.229,609.182 1371.496,609.211 L1368.201,620.183 Q1368.01,620.74 1367.724,620.959 Q1367.439,621.179 1366.868,621.179 Q1366.34,621.179 1366.033,620.894 Q1365.725,620.608 1365.52,619.89 z M1378.821,618.264 Q1378.821,617.122 1379.619,616.389 Q1380.417,615.657 1381.692,615.657 Q1382.995,615.657 1383.786,616.375 Q1384.578,617.092 1384.578,618.264 Q1384.578,619.436 1383.779,620.154 Q1382.981,620.872 1381.692,620.872 Q1380.403,620.872 1379.612,620.154 Q1378.821,619.436 1378.821,618.264 z M1399.695,618.982 Q1401.951,618.982 1403.393,617.554 Q1404.836,616.125 1404.836,613.914 Q1404.836,611.702 1403.386,610.259 Q1401.936,608.816 1399.695,608.816 Q1397.453,608.816 1396.011,610.259 Q1394.568,611.702 1394.568,613.914 Q1394.568,616.14 1396.003,617.561 Q1397.439,618.982 1399.695,618.982 z M1407.385,613.914 Q1407.385,617.048 1405.246,619.041 Q1403.108,621.033 1399.695,621.033 Q1396.296,621.033 1394.158,619.041 Q1392.019,617.048 1392.019,613.914 Q1392.019,610.779 1394.158,608.794 Q1396.296,606.809 1399.695,606.809 Q1403.093,606.809 1405.239,608.801 Q1407.385,610.793 1407.385,613.914 z M1410.989,609.211 Q1410.022,609.211 1409.663,608.977 Q1409.304,608.743 1409.304,608.157 Q1409.304,607.644 1409.597,607.388 Q1409.89,607.131 1410.476,607.131 L1414.578,607.131 Q1415.412,607.131 1415.691,607.358 Q1415.969,607.585 1415.969,608.157 Q1415.969,608.743 1415.603,608.977 Q1415.237,609.211 1414.255,609.211 L1413.713,609.211 L1417.522,618.689 L1421.755,609.211 L1420.876,609.211 Q1419.748,609.211 1419.353,608.984 Q1418.957,608.757 1418.957,608.157 Q1418.957,607.585 1419.236,607.358 Q1419.514,607.131 1420.349,607.131 L1424.875,607.131 Q1425.461,607.131 1425.754,607.388 Q1426.047,607.644 1426.047,608.157 Q1426.047,608.743 1425.688,608.977 Q1425.329,609.211 1424.363,609.211 L1424.099,609.211 L1419.265,619.89 Q1418.899,620.696 1418.54,620.938 Q1418.181,621.179 1417.493,621.179 Q1416.863,621.179 1416.518,620.945 Q1416.174,620.71 1415.808,619.89 z M1430.749,614.543 Q1430.867,616.653 1432.178,617.803 Q1433.489,618.953 1435.759,618.953 Q1437.473,618.953 1439.495,618.037 Q1441.516,617.122 1441.941,617.122 Q1442.38,617.122 1442.673,617.4 Q1442.966,617.678 1442.966,618.088 Q1442.966,618.513 1442.659,618.865 Q1442.351,619.216 1441.677,619.553 Q1440.212,620.271 1438.652,620.652 Q1437.092,621.033 1435.554,621.033 Q1432.214,621.033 1430.207,619.106 Q1428.201,617.18 1428.201,614.001 Q1428.201,610.764 1430.325,608.757 Q1432.449,606.75 1435.862,606.75 Q1438.953,606.75 1440.989,608.625 Q1443.025,610.5 1443.025,613.167 Q1443.025,613.987 1442.681,614.265 Q1442.336,614.543 1440.813,614.543 L1440.593,614.543 z M1430.823,612.625 L1440.359,612.625 Q1440.139,610.881 1438.901,609.819 Q1437.663,608.757 1435.862,608.757 Q1433.913,608.757 1432.58,609.783 Q1431.247,610.808 1430.823,612.625 z M1450.832,618.264 Q1450.832,617.122 1451.631,616.389 Q1452.429,615.657 1453.703,615.657 Q1455.007,615.657 1455.798,616.375 Q1456.589,617.092 1456.589,618.264 Q1456.589,619.436 1455.791,620.154 Q1454.993,620.872 1453.703,620.872 Q1452.414,620.872 1451.623,620.154 Q1450.832,619.436 1450.832,618.264 z M1470.725,603.601 L1468.235,603.601 Q1466.814,603.601 1466.455,603.374 Q1466.096,603.147 1466.096,602.546 Q1466.096,602.019 1466.396,601.755 Q1466.697,601.492 1467.268,601.492 L1472.102,601.492 Q1472.497,601.492 1472.717,601.653 Q1472.937,601.814 1472.937,602.092 L1472.937,618.601 L1477.536,618.601 Q1478.093,618.601 1478.349,618.843 Q1478.606,619.084 1478.606,619.612 Q1478.606,620.212 1478.357,620.439 Q1478.108,620.667 1477.419,620.667 L1466.609,620.667 Q1466.037,620.667 1465.737,620.403 Q1465.437,620.139 1465.437,619.612 Q1465.437,619.099 1465.745,618.85 Q1466.052,618.601 1466.667,618.601 L1470.725,618.601 z M1492.961,614.192 Q1492.156,613.928 1491.401,613.804 Q1490.647,613.679 1489.9,613.679 Q1487.644,613.679 1486.34,614.441 Q1485.036,615.203 1485.036,616.492 Q1485.036,617.488 1485.849,618.132 Q1486.662,618.777 1487.922,618.777 Q1489.783,618.777 1491.372,617.803 Q1492.961,616.829 1492.961,615.774 z M1493.078,618.806 Q1491.877,619.89 1490.464,620.461 Q1489.05,621.033 1487.556,621.033 Q1485.373,621.033 1484.033,619.817 Q1482.693,618.601 1482.693,616.653 Q1482.693,614.338 1484.473,613.064 Q1486.252,611.79 1489.475,611.79 Q1490.325,611.79 1491.189,611.899 Q1492.053,612.009 1492.961,612.244 L1492.961,612.141 Q1492.961,610.457 1492.156,609.651 Q1491.35,608.845 1489.651,608.845 Q1488.508,608.845 1487.102,609.46 Q1485.696,610.076 1485.242,610.076 Q1484.817,610.076 1484.538,609.731 Q1484.26,609.387 1484.26,608.845 Q1484.26,607.981 1485.879,607.38 Q1487.497,606.78 1490.017,606.78 Q1492.595,606.78 1493.913,608.091 Q1495.232,609.402 1495.232,611.965 L1495.232,618.601 L1495.95,618.601 Q1496.99,618.601 1497.341,618.821 Q1497.693,619.041 1497.693,619.612 Q1497.693,620.139 1497.4,620.403 Q1497.107,620.667 1496.521,620.667 L1494.221,620.667 Q1493.811,620.667 1493.547,620.417 Q1493.284,620.168 1493.196,619.7 z M1506.614,624.417 L1507.244,624.417 Q1508.313,624.417 1508.694,624.644 Q1509.075,624.871 1509.075,625.471 Q1509.075,625.984 1508.774,626.248 Q1508.474,626.511 1507.903,626.511 L1501.15,626.511 Q1500.461,626.511 1500.19,626.277 Q1499.919,626.042 1499.919,625.471 Q1499.919,624.944 1500.205,624.68 Q1500.491,624.417 1501.062,624.417 L1504.241,624.417 L1506.614,619.744 L1501.238,609.211 Q1500.271,609.211 1499.912,608.977 Q1499.553,608.743 1499.553,608.157 Q1499.553,607.644 1499.846,607.388 Q1500.139,607.131 1500.725,607.131 L1504.812,607.131 Q1505.632,607.131 1505.911,607.358 Q1506.189,607.585 1506.189,608.157 Q1506.189,608.743 1505.823,608.977 Q1505.456,609.211 1504.475,609.211 L1503.933,609.211 L1507.903,617.283 L1511.946,609.211 L1511.374,609.211 Q1510.364,609.211 1509.983,608.977 Q1509.602,608.743 1509.602,608.157 Q1509.602,607.585 1509.88,607.358 Q1510.159,607.131 1510.994,607.131 L1514.612,607.131 Q1515.212,607.131 1515.498,607.388 Q1515.784,607.644 1515.784,608.157 Q1515.784,608.713 1515.461,608.948 Q1515.139,609.182 1514.319,609.211 z M1525.715,618.982 Q1527.971,618.982 1529.414,617.554 Q1530.857,616.125 1530.857,613.914 Q1530.857,611.702 1529.407,610.259 Q1527.956,608.816 1525.715,608.816 Q1523.474,608.816 1522.031,610.259 Q1520.588,611.702 1520.588,613.914 Q1520.588,616.14 1522.024,617.561 Q1523.459,618.982 1525.715,618.982 z M1533.406,613.914 Q1533.406,617.048 1531.267,619.041 Q1529.128,621.033 1525.715,621.033 Q1522.317,621.033 1520.178,619.041 Q1518.039,617.048 1518.039,613.914 Q1518.039,610.779 1520.178,608.794 Q1522.317,606.809 1525.715,606.809 Q1529.114,606.809 1531.26,608.801 Q1533.406,610.793 1533.406,613.914 z M1540.071,615.261 Q1540.071,617.107 1540.847,617.957 Q1541.623,618.806 1543.308,618.806 Q1544.905,618.806 1546.04,617.795 Q1547.175,616.785 1547.175,615.261 L1547.175,609.211 L1545.168,609.211 Q1544.597,609.211 1544.341,608.97 Q1544.084,608.728 1544.084,608.215 Q1544.084,607.659 1544.363,607.395 Q1544.641,607.131 1545.256,607.131 L1548.376,607.131 Q1548.933,607.131 1549.16,607.373 Q1549.387,607.615 1549.387,608.552 L1549.387,618.601 L1550.061,618.601 Q1550.779,618.601 1551.094,618.835 Q1551.409,619.07 1551.409,619.612 Q1551.409,620.139 1551.108,620.403 Q1550.808,620.667 1550.237,620.667 L1548.01,620.667 Q1547.615,620.667 1547.395,620.505 Q1547.175,620.344 1547.175,620.066 L1547.175,619.07 Q1545.769,620.154 1544.766,620.557 Q1543.762,620.959 1542.649,620.959 Q1540.232,620.959 1539.023,619.678 Q1537.815,618.396 1537.815,615.803 L1537.815,609.211 L1537.507,609.211 Q1536.511,609.211 1536.145,608.977 Q1535.779,608.743 1535.779,608.157 Q1535.779,607.644 1536.064,607.388 Q1536.35,607.131 1536.951,607.131 L1539.162,607.131 Q1539.675,607.131 1539.873,607.336 Q1540.071,607.542 1540.071,608.245 z M1565.72,607.952 Q1566.438,607.952 1566.767,608.201 Q1567.097,608.45 1567.097,608.992 Q1567.097,609.504 1566.789,609.761 Q1566.482,610.017 1565.867,610.017 L1559.934,610.017 L1559.934,614.91 Q1559.934,617.312 1560.557,618.074 Q1561.179,618.835 1562.688,618.835 Q1564.021,618.835 1565.881,618.059 Q1567.742,617.283 1568.181,617.283 Q1568.591,617.283 1568.877,617.576 Q1569.162,617.869 1569.162,618.293 Q1569.162,618.777 1568.804,619.136 Q1568.445,619.495 1567.58,619.832 Q1566.145,620.403 1564.995,620.667 Q1563.845,620.93 1562.834,620.93 Q1561.12,620.93 1559.956,620.381 Q1558.791,619.832 1558.22,618.748 Q1557.927,618.235 1557.803,617.532 Q1557.678,616.829 1557.678,615.364 L1557.678,614.91 L1557.678,610.017 L1555.188,610.017 Q1554.573,610.017 1554.294,609.775 Q1554.016,609.534 1554.016,608.992 Q1554.016,608.391 1554.397,608.171 Q1554.778,607.952 1556.023,607.952 L1557.678,607.952 L1557.678,604.949 L1557.678,604.172 Q1557.678,603.542 1557.949,603.242 Q1558.22,602.942 1558.791,602.942 Q1559.436,602.942 1559.685,603.308 Q1559.934,603.674 1559.934,604.978 L1559.934,607.952 z M1576.853,618.264 Q1576.853,617.122 1577.651,616.389 Q1578.45,615.657 1579.724,615.657 Q1581.028,615.657 1581.819,616.375 Q1582.61,617.092 1582.61,618.264 Q1582.61,619.436 1581.811,620.154 Q1581.013,620.872 1579.724,620.872 Q1578.435,620.872 1577.644,620.154 Q1576.853,619.436 1576.853,618.264 z M1595.149,610.339 L1597.786,616.58 L1600.554,610.339 L1600.32,610.339 Q1599.529,610.339 1599.111,609.929 Q1598.694,609.519 1598.694,608.728 Q1598.694,607.864 1599.111,607.498 Q1599.529,607.131 1600.554,607.131 L1603.996,607.131 Q1605.022,607.131 1605.439,607.505 Q1605.857,607.878 1605.857,608.728 Q1605.857,609.519 1605.447,609.929 Q1605.036,610.339 1604.245,610.339 L1603.996,610.339 L1597.976,623.274 L1598.635,623.274 Q1599.631,623.274 1600.063,623.655 Q1600.495,624.036 1600.495,624.9 Q1600.495,625.75 1600.063,626.13 Q1599.631,626.511 1598.635,626.511 L1592.219,626.511 Q1591.208,626.511 1590.784,626.138 Q1590.359,625.764 1590.359,624.9 Q1590.359,624.036 1590.784,623.655 Q1591.208,623.274 1592.219,623.274 L1594.49,623.274 L1595.867,620.33 L1591.428,610.339 L1591.194,610.339 Q1590.403,610.339 1589.985,609.929 Q1589.568,609.519 1589.568,608.728 Q1589.568,607.864 1589.993,607.498 Q1590.417,607.131 1591.428,607.131 L1595.149,607.131 Q1596.16,607.131 1596.584,607.505 Q1597.009,607.878 1597.009,608.728 Q1597.009,609.519 1596.592,609.929 Q1596.174,610.339 1595.398,610.339 z" fill="#7570B3"/>
    <g>
      <path d="M1241.165,286.4 L1241.165,402.043" fill-opacity="0" stroke="#7570B3" stroke-width="1"/>
      <path d="M1244.165,288.4 L1241.165,281.4 L1238.165,288.4 M1241.165,286.4 L1241.165,281.4 M1246.165,280.4 L1236.165,280.4" fill-opacity="0" stroke="#7570B3" stroke-width="1" stroke-opacity="1"/>
      <path d="M1238.165,400.043 L1241.165,407.043 L1244.165,400.043 M1241.165,402.043 L1241.165,407.043 M1236.165,408.043 L1246.165,408.043" fill-opacity="0" stroke="#7570B3" stroke-width="1" stroke-opacity="1"/>
    </g>
    <path d="M1256.833,612.834 C1175.898,598.753 1196.156,306.23 1240.509,334.08" fill-opacity="0" stroke="#7570B3" stroke-width="1"/>
    <text transform="matrix(1, 0, 0, 1, 491.351, 843.5)">
      <tspan x="-408.851" y="-43.5" font-family="Helvetica" font-size="30" fill="#000000">When </tspan>
      <tspan x="-322.147" y="-43.5" font-family="Helvetica-Bold" font-size="30" fill="#000000">OVE-core</tspan>
      <tspan x="-185.433" y="-43.5" font-family="Helvetica" font-size="30" fill="#000000">&#160; is told to create a section, it creates an </tspan>
      <tspan x="-408.851" y="-7.5" font-family="Helvetica" font-size="30" fill="#000000">iframe, setting its margin to position it correctly, and setting </tspan>
      <tspan x="-408.851" y="28.5" font-family="Courier" font-size="30" fill="#000000">window.ove.layout</tspan>
      <tspan x="-102.801" y="28.5" font-family="Helvetica" font-size="30" fill="#000000">&#160;so that app running in the iframe </tspan>
      <tspan x="-408.851" y="64.5" font-family="Helvetica" font-size="30" fill="#000000">can determine what to display.</tspan>
    </text>
    <g>
      <path d="M1486.98,317.811 L1269.38,317.811" fill-opacity="0" stroke="#000000" stroke-width="2"/>
      <path d="M1484.98,321.411 L1492.98,317.811 L1484.98,314.211 M1486.98,317.811 L1492.98,317.811 M1494.18,323.811 L1494.18,311.811" fill-opacity="0" stroke="#000000" stroke-width="2" stroke-opacity="1"/>
      <path d="M1271.38,314.211 L1263.38,317.811 L1271.38,321.411 M1269.38,317.811 L1263.38,317.811 M1262.18,311.811 L1262.18,323.811" fill-opacity="0" stroke="#000000" stroke-width="2" stroke-opacity="1"/>
    </g>
    <text transform="matrix(1, 0, 0, 1, 1377.68, 348.632)">
      <tspan x="-101.027" y="7.5" font-family="Courier" font-size="30" fill="#000000">margin-left</tspan>
    </text>
    <g>
      <path d="M2326.714,324.679 L2109.114,324.679" fill-opacity="0" stroke="#000000" stroke-width="2"/>
      <path d="M2324.714,328.279 L2332.714,324.679 L2324.714,321.079 M2326.714,324.679 L2332.714,324.679 M2333.914,330.679 L2333.914,318.679" fill-opacity="0" stroke="#000000" stroke-width="2" stroke-opacity="1"/>
      <path d="M2111.114,321.079 L2103.114,324.679 L2111.114,328.279 M2109.114,324.679 L2103.114,324.679 M2101.914,318.679 L2101.914,330.679" fill-opacity="0" stroke="#000000" stroke-width="2" stroke-opacity="1"/>
    </g>
    <text transform="matrix(1, 0, 0, 1, 2242.414, 371)">
      <tspan x="-129.027" y="-8" font-family="Courier" font-size="30" fill="#000000">margin-right</tspan>
    </text>
  </g>
</svg>
