<?xml version="1.0" encoding="UTF-8"?>
<!DOCTYPE svg PUBLIC "-//W3C//DTD SVG 1.1//EN" "http://www.w3.org/Graphics/SVG/1.1/DTD/svg11.dtd">
<svg version="1.1" xmlns="http://www.w3.org/2000/svg" xmlns:xlink="http://www.w3.org/1999/xlink" x="0" y="0" width="5669.292" height="2551.181" viewBox="0, 0, 5669.292, 2551.181">
  <g id="Layer_1">
    <path d="M3396,652 L5024,652 L5024,1856 L3396,1856 L3396,652 z" fill="#D95F02"/>
    <path d="M416.5,652.5 L2044.5,652.5 L2044.5,1856.5 L416.5,1856.5 L416.5,652.5 z" fill-opacity="0" stroke="#000000" stroke-width="4"/>
    <path d="M742,868 L1718,868 L1718,1592 L742,1592 L742,868 z" fill="#D95F02"/>
    <text transform="matrix(1, 0, 0, 1, 1744.124, 360.5)">
      <tspan x="-1521.124" y="-47" font-family="Helvetica" font-size="66" fill="#000000">The browser opens </tspan>
      <tspan x="-937.823" y="-47" font-family="Helvetica-Bold" font-size="66" fill="#000000">OVE-core</tspan>
      <tspan x="-637.052" y="-47" font-family="Helvetica" font-size="66" fill="#000000">&#160;in a window, with a URL of the form:</tspan>
      <tspan x="-1521.124" y="20" font-family="Courier" font-size="55" fill="#000000">http://&lt;ove-</tspan>
      <tspan x="-1125.059" y="20" font-family="Courier-Bold" font-size="55" fill="#000000">core</tspan>
      <tspan x="-993.038" y="20" font-family="Courier" font-size="55" fill="#000000">-server&gt;/view.html?oveViewId=&lt;space&gt;-&lt;client&gt;</tspan>
    </text>
    <text transform="matrix(1, 0, 0, 1, 1653.877, 2282.437)">
      <tspan x="-1521.124" y="-94.5" font-family="Helvetica" font-size="66" fill="#000000">When it receives a message saying a section has been created,</tspan>
      <tspan x="346.245" y="-94.5" font-family="Helvetica-Bold" font-size="66" fill="#000000"> OVE-core </tspan>
      <tspan x="683.689" y="-94.5" font-family="Helvetica" font-size="66" fill="#000000">creates an iframe with the id</tspan>
      <tspan x="1509.076" y="-94.5" font-family="Courier" font-size="66" fill="#000000"> </tspan>
      <tspan x="-1521.124" y="-14.5" font-family="Courier" font-size="66" fill="#000000">content-frame-section-&lt;sectionId&gt;</tspan>
      <tspan x="-214.111" y="-14.5" font-family="GillSans" font-size="66" fill="#000000"> </tspan>
      <tspan x="-195.774" y="-14.5" font-family="Helvetica" font-size="66" fill="#000000">and opens the relevant </tspan>
      <tspan x="494.068" y="-14.5" font-family="Helvetica-Bold" font-size="66" fill="#000000">OVE app</tspan>
      <tspan x="769.122" y="-14.5" font-family="Helvetica" font-size="66" fill="#000000">&#160;in it by loading a URL of </tspan>
      <tspan x="-1521.124" y="65.5" font-family="Helvetica" font-size="66" fill="#000000">the form:</tspan>
      <tspan x="-1521.124" y="132.5" font-family="Courier" font-size="55" fill="#000000">http://&lt;ove-</tspan>
      <tspan x="-1125.059" y="132.5" font-family="Courier-Bold" font-size="55" fill="#000000">app</tspan>
      <tspan x="-1026.043" y="132.5" font-family="Courier" font-size="55" fill="#000000">-server&gt;/view.html?oveViewId=&lt;space&gt;-&lt;client&gt;.&lt;sectionId&gt;</tspan>
    </text>
    <g>
      <path d="M1204.5,1608.9 L1204.5,2128.5" fill-opacity="0" stroke="#000000" stroke-width="4"/>
      <path d="M1209.3,1608.9 L1204.5,1596.1 L1199.7,1608.9 z" fill="#000000" fill-opacity="1" stroke="#000000" stroke-width="4" stroke-opacity="1"/>
    </g>
    <g>
      <path d="M1186.5,636.1 L1186.5,426.5" fill-opacity="0" stroke="#000000" stroke-width="4"/>
      <path d="M1181.7,636.1 L1186.5,648.9 L1191.3,636.1 z" fill="#000000" fill-opacity="1" stroke="#000000" stroke-width="4" stroke-opacity="1"/>
    </g>
    <path d="M3396.5,652.5 L5024.5,652.5 L5024.5,1856.5 L3396.5,1856.5 L3396.5,652.5 z" fill-opacity="0" stroke="#000000" stroke-width="4"/>
    <text transform="matrix(1, 0, 0, 1, 4473.876, 2282.437)">
      <tspan x="-1113.124" y="-97.5" font-family="Helvetica" font-size="66" fill="#000000">The control page is accessed at:</tspan>
      <tspan x="-1113.124" y="45.5" font-family="Courier" font-size="55" fill="#000000">http://&lt;ove-</tspan>
      <tspan x="-717.059" y="45.5" font-family="Courier-Bold" font-size="55" fill="#000000">app</tspan>
      <tspan x="-618.043" y="45.5" font-family="Courier" font-size="55" fill="#000000">-server&gt;/control.html?oveSectionId=&lt;sectionId&gt;</tspan>
    </text>
    <text transform="matrix(1, 0, 0, 1, 1283.006, 122.5)">
      <tspan x="-216.006" y="36" font-family="Helvetica-Bold" font-size="100" fill="#000000">Viewer</tspan>
    </text>
    <text transform="matrix(1, 0, 0, 1, 4253.994, 177.5)">
      <tspan x="-256.006" y="-19" font-family="Helvetica-Bold" font-size="100" fill="#000000">Controller</tspan>
    </text>
  </g>
</svg>
